<svg width="37" height="37" viewBox="0 0 37 37" fill="none" xmlns="http://www.w3.org/2000/svg">
<g filter="url(#filter0_d_1_587)">
<rect x="1" y="1" width="35" height="35" rx="12" fill="#E3EEFF"/>
</g>
<path d="M18.6121 7.0675C26.1228 7.0675 32.2243 13.083 32.2243 20.4942C32.2243 25.6417 27.988 29.8174 22.7724 29.8174H14.4577C9.23625 29.8174 5 25.6388 5 20.4942C5 13.083 11.0986 7.0675 18.6121 7.0675Z" fill="#2563EB"/>
<path d="M18.6121 12.2092C23.8716 12.2092 28.1401 16.4195 28.1401 21.6074C28.1401 25.2092 25.1756 28.1333 21.524 28.1333H15.7032C12.0517 28.1333 9.08716 25.2092 9.08716 21.6074C9.08716 16.4195 13.3556 12.2092 18.6151 12.2092H18.6121Z" fill="#FFF4EE"/>
<path d="M16.358 19.2427C16.358 18.7649 15.9653 18.3776 15.481 18.3776C14.9966 18.3776 14.6039 18.7649 14.6039 19.2427V20.1078C14.6039 20.5856 14.9966 20.9729 15.481 20.9729C15.9653 20.9729 16.358 20.5856 16.358 20.1078V19.2427Z" fill="#001635"/>
<path d="M22.3953 19.2427C22.3953 18.7649 22.0026 18.3776 21.5182 18.3776C21.0338 18.3776 20.6411 18.7649 20.6411 19.2427V20.1078C20.6411 20.5856 21.0338 20.9729 21.5182 20.9729C22.0026 20.9729 22.3953 20.5856 22.3953 20.1078V19.2427Z" fill="#001635"/>
<path d="M18.3665 23.7442C17.355 23.7442 16.4019 23.427 15.7529 22.8762C15.5015 22.6628 15.4751 22.2937 15.6915 22.0486C15.9078 21.8035 16.2879 21.7746 16.5364 21.988C17.4047 22.7263 19.3898 22.7003 20.2289 21.988C20.4774 21.7746 20.8574 21.8006 21.0738 22.0486C21.2901 22.2937 21.2638 22.6628 21.0124 22.8762C20.3721 23.4212 19.381 23.7442 18.3636 23.7442H18.3665Z" fill="#001635"/>
<path d="M27.453 11.8402C28.2599 11.8402 28.9148 11.1942 28.9148 10.3983C28.9148 9.60238 28.2599 8.95642 27.453 8.95642C26.6461 8.95642 25.9912 9.60238 25.9912 10.3983C25.9912 11.1942 26.6461 11.8402 27.453 11.8402Z" fill="#FF4141" stroke="white" stroke-width="0.5" stroke-miterlimit="10"/>
<path d="M18.042 10.1877C18.0245 10.1877 18.007 10.1877 17.9923 10.1791C17.9339 10.156 17.8959 10.0954 17.9076 10.0349L18.2116 7.95859H17.1503C17.0977 7.95859 17.0509 7.92975 17.0276 7.8865C17.0042 7.84036 17.0071 7.78845 17.0363 7.74808L19.0682 4.87587C19.1033 4.82396 19.1735 4.80377 19.2319 4.82684C19.2904 4.84991 19.3284 4.91047 19.3167 4.97103L19.0127 7.04733H20.0739C20.1265 7.04733 20.1733 7.07616 20.1967 7.11942C20.2201 7.16556 20.2172 7.21747 20.1879 7.25784L18.1561 10.1272C18.1297 10.1647 18.0859 10.1848 18.042 10.1848V10.1877Z" fill="#FFBA24"/>
<defs>
<filter id="filter0_d_1_587" x="0" y="0" width="37" height="37" filterUnits="userSpaceOnUse" color-interpolation-filters="sRGB">
<feFlood flood-opacity="0" result="BackgroundImageFix"/>
<feColorMatrix in="SourceAlpha" type="matrix" values="0 0 0 0 0 0 0 0 0 0 0 0 0 0 0 0 0 0 127 0" result="hardAlpha"/>
<feOffset/>
<feGaussianBlur stdDeviation="0.5"/>
<feComposite in2="hardAlpha" operator="out"/>
<feColorMatrix type="matrix" values="0 0 0 0 0 0 0 0 0 0.282353 0 0 0 0 0.780392 0 0 0 0.3 0"/>
<feBlend mode="normal" in2="BackgroundImageFix" result="effect1_dropShadow_1_587"/>
<feBlend mode="normal" in="SourceGraphic" in2="effect1_dropShadow_1_587" result="shape"/>
</filter>
</defs>
</svg>
