<svg width="50" height="44" viewBox="0 0 50 44" fill="none" xmlns="http://www.w3.org/2000/svg">
<path d="M12.3107 20.415C15.0128 18.8509 15.7505 15.06 13.9583 11.9478C12.1662 8.83556 8.52288 7.58061 5.82077 9.14475C3.11866 10.7089 2.38099 14.4998 4.17314 17.612C5.96529 20.7242 9.60861 21.9792 12.3107 20.415Z" fill="#FFE6D9"/>
<path d="M9.77324 21.2874C9.13581 21.2874 8.48422 21.1762 7.83499 20.9537C6.25323 20.4093 4.89102 19.2565 4.00098 17.7109C2.15953 14.5083 2.93152 10.5909 5.72204 8.97428C7.07952 8.18844 8.70142 8.05825 10.295 8.6074C11.8767 9.15181 13.239 10.3045 14.129 11.8502C15.9728 15.0504 15.2008 18.9701 12.4103 20.5868C11.6053 21.0531 10.7058 21.2874 9.7756 21.2874H9.77324ZM8.35674 8.66657C7.49267 8.66657 6.66165 8.88434 5.91799 9.31513C3.31398 10.8229 2.60809 14.5012 4.3433 17.5144C5.18613 18.9796 6.47278 20.0684 7.96484 20.5821C9.44744 21.0933 10.956 20.9726 12.212 20.246C14.816 18.7382 15.5242 15.0599 13.789 12.0467C12.9462 10.5815 11.6596 9.49266 10.1675 8.97902C9.56313 8.77072 8.95403 8.66657 8.3591 8.66657H8.35674Z" fill="#555555"/>
<!-- <g style="mix-blend-mode:multiply" opacity="0.2"> -->
<path d="M13.697 11.8171C12.6912 10.0726 12.186 9.54476 10.4626 8.90094C9.84406 9.7862 9.87475 9.74833 9.45452 10.8466C9.29871 11.2514 9.00596 11.5875 8.62587 11.7934C7.4903 12.4065 5.21681 14.4445 4.14499 17.7109C4.20873 17.8364 4.56994 18.2459 4.64077 18.3713C6.43264 21.4839 9.34828 21.8508 12.0491 20.2862C14.7523 18.7216 15.4888 14.9321 13.697 11.8195V11.8171Z" fill="#9B9B9C"/>
<!-- </g> -->
<path d="M25.4073 27.6958C32.6862 26.0846 37.3965 19.3725 35.928 12.704C34.4596 6.03542 27.3685 1.93565 20.0896 3.54687C12.8108 5.15808 8.10049 11.8702 9.56893 18.5387C11.0374 25.2072 18.1285 29.307 25.4073 27.6958Z" fill="#0048C7"/>
<path d="M22.2361 28.2441C16.0861 28.2441 10.6467 24.3575 9.37425 18.582C8.65183 15.3013 9.36717 11.9118 11.3857 9.03348C13.4018 6.1623 16.478 4.14562 20.0476 3.3574C23.6172 2.56682 27.2529 3.0994 30.2866 4.85335C33.3274 6.61203 35.3978 9.38616 36.1202 12.6645C36.8426 15.9451 36.1273 19.3347 34.1088 22.213C32.0926 25.0841 29.0188 27.1008 25.4492 27.8914C24.3703 28.1305 23.2938 28.2441 22.2385 28.2441H22.2361ZM23.282 3.39291C22.2385 3.39291 21.1808 3.50889 20.1302 3.74086C16.6574 4.51013 13.6663 6.47001 11.7068 9.26071C9.75199 12.0467 9.06026 15.3273 9.75671 18.4968C11.1992 25.0486 18.2014 29.0891 25.3619 27.5056C28.8347 26.7363 31.8259 24.7764 33.7854 21.9857C35.7401 19.1998 36.4319 15.9191 35.7354 12.7497C35.0366 9.57789 33.0322 6.89607 30.0883 5.1942C28.032 4.00596 25.69 3.39528 23.282 3.39528V3.39291Z" fill="#555555"/>
<path d="M47.3249 15.9475C48.5972 12.5878 47.2638 8.96413 44.3469 7.85376C41.4299 6.7434 38.0339 8.56683 36.7617 11.9265C35.4894 15.2862 36.8228 18.9098 39.7397 20.0202C42.6567 21.1306 46.0527 19.3071 47.3249 15.9475Z" fill="#FFE6D9"/>
<path d="M41.5053 20.5395C40.8868 20.5395 40.2682 20.4306 39.6662 20.2034C36.6514 19.0554 35.2656 15.3108 36.5735 11.8549C37.8814 8.3991 41.3991 6.52207 44.4115 7.6677C47.4263 8.8157 48.8121 12.5603 47.5042 16.0161C46.456 18.7832 43.9913 20.5395 41.5029 20.5395H41.5053ZM36.9418 11.9946C35.7094 15.2468 36.9961 18.7642 39.8079 19.8341C42.6173 20.904 45.9083 19.1287 47.1406 15.8765C48.373 12.6242 47.0863 9.10684 44.2746 8.03695C41.4628 6.96707 38.1742 8.74232 36.9418 11.9946Z" fill="#555555"/>
<!-- <g style="mix-blend-mode:multiply" opacity="0.2"> -->
<path d="M44.4658 16.3665C44.6452 11.9165 41.0119 9.37434 39.4962 8.47961C38.271 9.23942 37.3431 10.3851 36.76 11.926C35.4875 15.2847 36.8214 18.9086 39.7394 20.0188C41.8783 20.833 43.8567 20.4922 45.4833 18.7027C45.1741 17.7086 44.7892 17.0008 44.5862 16.7405C44.5036 16.6339 44.4611 16.5014 44.4682 16.3665H44.4658Z" fill="#9B9B9C"/>
<!-- </g> -->
<path d="M25.8517 28.2394C36.6138 26.2083 44.4529 19.8461 43.3608 14.029C42.2687 8.2119 32.6589 5.14267 21.8968 7.1737C11.1347 9.20472 3.29565 15.5669 4.38775 21.384C5.47985 27.2011 15.0896 30.2704 25.8517 28.2394Z" fill="#2563EB"/>
<path d="M19.3583 29.0606C11.3762 29.0606 5.07752 26.1114 4.19693 21.42C3.08497 15.5048 11.0103 9.0287 21.8631 6.98124C32.7135 4.93378 42.4449 8.08189 43.5569 13.9947C44.0999 16.8824 42.5441 19.9785 39.1775 22.71C35.8464 25.4131 31.127 27.4464 25.8907 28.4358C23.6432 28.8595 21.4429 29.0606 19.3606 29.0606H19.3583ZM28.4333 6.74454C26.3605 6.74454 24.172 6.94573 21.9339 7.36706C11.296 9.37428 3.51229 15.6468 4.58175 21.349C5.65121 27.0511 15.1772 30.0548 25.8152 28.0499C30.9878 27.0747 35.6457 25.0699 38.9273 22.4046C42.1758 19.7678 43.682 16.809 43.1673 14.068C42.3222 9.566 36.2052 6.74454 28.4333 6.74454Z" fill="#555555"/>
<!-- <g style="mix-blend-mode:multiply" opacity="0.5"> -->
<path d="M11.9665 13.7533C6.00061 18.7903 5.60163 22.5775 5.90382 24.4072C9.20664 28.1896 17.1509 29.882 25.8529 28.2417C34.9823 26.5185 42.0058 21.6804 43.2618 16.7002C38.2379 7.3103 20.1232 6.87003 11.9688 13.7533H11.9665Z" fill="#9B9B9C"/>
<!-- </g> -->
<path d="M47.2106 26.7442C47.4499 17.5808 38.4291 9.9105 27.0621 9.61206C15.6951 9.31363 6.28624 16.5001 6.04691 25.6634C5.80758 34.8268 14.8284 42.4971 26.1954 42.7955C37.5625 43.094 46.9713 35.9075 47.2106 26.7442Z" fill="#FFE6D9"/>
<path d="M26.8728 43C26.6462 43 26.4195 42.9976 26.1905 42.9905C14.7334 42.6899 5.60872 34.9143 5.84952 25.6569C6.09033 16.402 15.6069 9.11394 27.064 9.41455C38.5212 9.71516 47.6459 17.4908 47.4051 26.7481C47.169 35.8209 38.0207 43 26.8728 43ZM26.3818 9.80038C15.444 9.80038 6.47278 16.8114 6.24142 25.6688C6.00534 34.7084 14.9577 42.3017 26.2 42.5976C37.4423 42.8864 46.7771 35.7782 47.0132 26.7387C47.2492 17.6991 38.2969 10.1057 27.0546 9.80984C26.8303 9.80511 26.6037 9.80038 26.3818 9.80038Z" fill="#555555"/>
<path d="M20.9938 17.2041C22.0232 17.1672 22.8464 16.8217 22.8325 16.4323C22.8186 16.043 21.9729 15.7574 20.9435 15.7943C19.9141 15.8313 19.0909 16.1768 19.1048 16.5661C19.1187 16.9554 19.9645 17.2411 20.9938 17.2041Z" fill="#211714"/>
<path d="M32.0072 17.2045C33.0366 17.1675 33.8598 16.822 33.8459 16.4326C33.832 16.0433 32.9862 15.7577 31.9569 15.7946C30.9275 15.8316 30.1043 16.1771 30.1182 16.5664C30.1321 16.9557 30.9778 17.2414 32.0072 17.2045Z" fill="#211714"/>
<path d="M13.2295 33.9699C16.6939 33.9699 19.5023 31.1541 19.5023 27.6807C19.5023 24.2073 16.6939 21.3916 13.2295 21.3916C9.76517 21.3916 6.95676 24.2073 6.95676 27.6807C6.95676 31.1541 9.76517 33.9699 13.2295 33.9699Z" fill="#FFC8BC"/>
<path d="M40.1832 33.9699C43.6476 33.9699 46.456 31.1541 46.456 27.6807C46.456 24.2073 43.6476 21.3916 40.1832 21.3916C36.7189 21.3916 33.9105 24.2073 33.9105 27.6807C33.9105 31.1541 36.7189 33.9699 40.1832 33.9699Z" fill="#FFC8BC"/>
<path d="M21.1383 23.477C21.9467 23.477 22.6021 22.8199 22.6021 22.0094C22.6021 21.1989 21.9467 20.5419 21.1383 20.5419C20.3299 20.5419 19.6746 21.1989 19.6746 22.0094C19.6746 22.8199 20.3299 23.477 21.1383 23.477Z" fill="#211714"/>
<path d="M20.6024 22.1846C20.9414 22.1846 21.2162 21.909 21.2162 21.5692C21.2162 21.2293 20.9414 20.9537 20.6024 20.9537C20.2634 20.9537 19.9886 21.2293 19.9886 21.5692C19.9886 21.909 20.2634 22.1846 20.6024 22.1846Z" fill="white"/>
<path d="M31.9817 23.477C32.7901 23.477 33.4454 22.8199 33.4454 22.0094C33.4454 21.1989 32.7901 20.5419 31.9817 20.5419C31.1733 20.5419 30.518 21.1989 30.518 22.0094C30.518 22.8199 31.1733 23.477 31.9817 23.477Z" fill="#211714"/>
<path d="M31.4458 22.1846C31.7848 22.1846 32.0596 21.909 32.0596 21.5692C32.0596 21.2293 31.7848 20.9537 31.4458 20.9537C31.1068 20.9537 30.832 21.2293 30.832 21.5692C30.832 21.909 31.1068 22.1846 31.4458 22.1846Z" fill="white"/>
<path d="M26.6273 28.263C23.5039 28.263 20.8432 27.6263 20.0075 26.6795C19.8989 26.5564 19.9107 26.3694 20.0335 26.2605C20.1562 26.1516 20.3427 26.1635 20.4513 26.2866C21.0581 26.9754 23.374 27.6713 26.6273 27.6713C29.8805 27.6713 32.4893 26.9399 33.07 26.2534C33.1739 26.128 33.3628 26.1138 33.4855 26.2179C33.6107 26.3244 33.6248 26.5114 33.5209 26.6345C32.7112 27.5931 29.8758 28.263 26.6273 28.263Z" fill="#211714"/>
</svg>
