<svg width="20" height="20" viewBox="0 0 20 20" fill="none" xmlns="http://www.w3.org/2000/svg">
<path d="M15.875 2.30408H4.125C2.39911 2.30408 1 3.68158 1 5.38081V15.9229C1 17.6221 2.39911 18.9996 4.125 18.9996H15.875C17.6009 18.9996 19 17.6221 19 15.9229V5.38081C19 3.68158 17.6009 2.30408 15.875 2.30408Z" fill="white" stroke="#0048C7" stroke-linecap="round" stroke-linejoin="round"/>
<path d="M4.125 2.30408H15.875C17.6 2.30408 19 3.68245 19 5.38081V7.13017H1V5.38081C1 3.68245 2.4 2.30408 4.125 2.30408Z" fill="#E6EEFF" stroke="#0048C7" stroke-linecap="round" stroke-linejoin="round"/>
<path d="M4.84766 1V3.69768" stroke="#0048C7" stroke-linecap="round" stroke-linejoin="round"/>
<path d="M15.1523 1V3.69768" stroke="#0048C7" stroke-linecap="round" stroke-linejoin="round"/>
<path d="M6.5 12.5L9.10219 15L13 11" stroke="#0048C7" stroke-linecap="round" stroke-linejoin="round"/>
</svg>
