<svg width="23" height="16" viewBox="0 0 23 16" fill="none" xmlns="http://www.w3.org/2000/svg">
<path d="M11.5 14.9944C16.4068 14.9944 20.5625 12.0594 22 7.99438C20.5571 3.94056 16.4068 1 11.5 1C6.59316 1 2.43747 3.94056 1 8C2.43747 12.0594 6.59316 15 11.5 15V14.9944Z" stroke="#555555" stroke-linecap="round" stroke-linejoin="round"/>
<path d="M15.875 8C15.875 10.4188 13.9188 12.375 11.5 12.375C9.08117 12.375 7.125 10.4188 7.125 8C7.125 5.58117 9.08117 3.625 11.5 3.625C13.9188 3.625 15.875 5.58929 15.875 8Z" fill="#555555"/>
<path d="M15 5.8125C15 6.53815 14.4131 7.125 13.6875 7.125C12.9619 7.125 12.375 6.53815 12.375 5.8125C12.375 5.08685 12.9619 4.5 13.6875 4.5C14.4131 4.5 15 5.08929 15 5.8125Z" fill="white"/>
</svg>
