<svg width="17" height="13" viewBox="0 0 17 13" fill="none" xmlns="http://www.w3.org/2000/svg">
<path d="M8.50002 8.07145C9.36789 8.07145 10.0714 7.36789 10.0714 6.50002C10.0714 5.63214 9.36789 4.92859 8.50002 4.92859C7.63214 4.92859 6.92859 5.63214 6.92859 6.50002C6.92859 7.36789 7.63214 8.07145 8.50002 8.07145Z" fill="white"/>
<path d="M12.4286 1C14.3222 2.1825 15.5714 4.20571 15.5714 6.5C15.5714 8.79429 14.3222 10.8175 12.4286 12" stroke="white" stroke-linecap="round" stroke-linejoin="round"/>
<path d="M4.57145 1C2.67787 2.1825 1.42859 4.20571 1.42859 6.5C1.42859 8.79429 2.67787 10.8175 4.57145 12" stroke="white" stroke-linecap="round" stroke-linejoin="round"/>
<path d="M6.14284 9.64289C5.19213 8.92789 4.57141 7.78075 4.57141 6.50004C4.57141 5.21932 5.19213 4.07218 6.14284 3.35718" stroke="white" stroke-linecap="round" stroke-linejoin="round"/>
<path d="M10.8571 3.35718C11.8079 4.07218 12.4286 5.21932 12.4286 6.50004C12.4286 7.78075 11.8079 8.92789 10.8571 9.64289" stroke="white" stroke-linecap="round" stroke-linejoin="round"/>
</svg>
