<svg width="288" height="75" viewBox="0 0 288 75" fill="none" xmlns="http://www.w3.org/2000/svg">
<path d="M68.4698 8.51536C68.1817 9.10755 67.7655 9.63572 67.2374 10.0679C66.7092 10.5 66.069 10.8361 65.3488 11.0922C64.6286 11.3483 63.8123 11.4603 62.948 11.4603C62.0837 11.4603 61.2835 11.3323 60.5633 11.0922C59.843 10.8521 59.2028 10.5 58.6747 10.0679C58.1465 9.63572 57.7304 9.12356 57.4423 8.51536C57.1542 7.92318 57.0101 7.26697 57.0101 6.54674C57.0101 5.82651 57.1542 5.1703 57.4423 4.5461C57.7304 3.93791 58.1465 3.40974 58.6747 2.9616C59.2028 2.51346 59.827 2.17735 60.5633 1.93728C61.2835 1.6972 62.0837 1.56916 62.948 1.56916C63.8123 1.56916 64.6125 1.6972 65.3488 1.93728C66.085 2.17735 66.7092 2.52947 67.2374 2.9616C67.7655 3.39374 68.1817 3.92191 68.4698 4.5461C68.7579 5.1543 68.9019 5.82651 68.9019 6.54674C68.9019 7.26697 68.7579 7.92318 68.4698 8.51536ZM66.7732 5.12229C66.5812 4.69015 66.3091 4.32203 65.941 4.00193C65.5889 3.68183 65.1407 3.44175 64.6446 3.2657C64.1324 3.08964 63.5722 2.99361 62.948 2.99361C62.3238 2.99361 61.7636 3.08964 61.2515 3.2657C60.7553 3.44175 60.3232 3.69784 59.9551 4.00193C59.603 4.32203 59.3149 4.69015 59.1228 5.12229C58.9307 5.55442 58.8347 6.01857 58.8347 6.53073C58.8347 7.0429 58.9307 7.47503 59.1228 7.90717C59.3149 8.33931 59.5869 8.69142 59.9551 9.01152C60.3072 9.31562 60.7393 9.55569 61.2515 9.74775C61.7476 9.92381 62.3238 10.0198 62.948 10.0198C63.5722 10.0198 64.1484 9.92381 64.6446 9.74775C65.1567 9.5717 65.5889 9.33162 65.941 9.01152C66.2931 8.70742 66.5812 8.33931 66.7732 7.90717C66.9653 7.47503 67.0613 7.02689 67.0613 6.53073C67.0613 6.03458 66.9653 5.55442 66.7732 5.12229ZM59.2348 21.3034V16.3098H72.7271V14.1652H59.2348V12.7727H74.5677V17.6383H61.1394V19.895H75.1119V21.3034H59.2348ZM72.7911 11.7804V1.48914H74.5677V11.7804H72.7911Z" fill="#555555"/>
<path d="M88.9084 1.15295H90.7169V3.28163H95.6785V4.73809H90.7169V5.76242C90.7169 6.53066 90.877 7.23488 91.1971 7.89109C91.5172 8.5473 91.9333 9.13949 92.4455 9.66765C92.9577 10.1958 93.5498 10.66 94.2061 11.0441C94.8623 11.4282 95.5345 11.7483 96.2067 11.9884L95.2144 13.2688C94.6702 13.0607 94.142 12.7886 93.6139 12.4685C93.0857 12.1484 92.5895 11.7963 92.1094 11.3962C91.6452 11.0121 91.2131 10.5959 90.813 10.1478C90.4289 9.69966 90.1088 9.25152 89.8527 8.77137C89.5806 9.29954 89.2445 9.79569 88.8283 10.2919C88.4122 10.788 87.9641 11.2522 87.4839 11.7003C87.0038 12.1484 86.4756 12.5486 85.9314 12.9167C85.3873 13.2848 84.8431 13.6049 84.2829 13.861L83.2106 12.6766C83.8988 12.3885 84.587 12.0204 85.2592 11.5563C85.9314 11.0921 86.5556 10.5639 87.0838 9.95574C87.628 9.36356 88.0601 8.69134 88.3802 7.97112C88.7163 7.25089 88.8764 6.48264 88.8764 5.69839V4.70608H83.7707V3.24962H88.8764V1.15295H88.9084ZM85.6753 21.1113V15.2534H87.4839V19.6228H101.344V21.0953H85.6753V21.1113ZM99.2156 16.6459V8.41926H95.0863V6.9628H99.2156V1.48906H100.992V16.6459H99.2156Z" fill="#555555"/>
<path d="M110.339 12.4366V2.20936H120.871V12.4366H110.339ZM111.684 21.1114V14.6133H113.492V19.6389H127.257V21.1114H111.668H111.684ZM119.078 3.64982H112.148V10.9961H119.078V3.64982ZM126.92 8.19526V16.3739H125.144V1.48914H126.92V6.70679H130.073V8.17926H126.92V8.19526Z" fill="#555555"/>
<path d="M1.60051 28.3941H4.86554C5.74582 28.3941 6.46605 27.6738 6.46605 26.7935V20.9357C6.46605 20.0554 7.18628 19.3352 8.06656 19.3352H12.2279C13.1082 19.3352 13.8284 20.0554 13.8284 20.9357V26.7935C13.8284 27.6738 14.5486 28.3941 15.4289 28.3941H29.8655C30.7457 28.3941 31.466 29.1143 31.466 29.9946V32.6194C31.466 33.4997 30.7457 34.2199 29.8655 34.2199H1.60051C0.720228 34.2199 0 33.4997 0 32.6194V29.9946C0 29.1143 0.720228 28.3941 1.60051 28.3941ZM1.48847 11.0285C1.48847 10.1483 2.2087 9.42804 3.08898 9.42804H24.2637C27.7528 9.42804 29.0812 11.2206 29.0812 13.8774V16.8384C29.0812 18.679 28.441 22.3121 26.9846 25.2891C26.6164 26.0413 25.7362 26.3934 24.9679 26.0893L20.9987 24.5688C20.1344 24.2327 19.7503 23.2404 20.1184 22.3921C21.0147 20.4075 21.4468 18.5029 21.4468 17.3666V16.7904C21.4468 15.622 20.9666 15.2539 19.5902 15.2539H3.08898C2.2087 15.2539 1.48847 14.5337 1.48847 13.6534V11.0285ZM18.3258 37.1328H29.8655C39.0364 37.1328 42.1574 40.3658 42.1574 45.6155C42.1574 50.8652 39.0364 54.1942 29.7534 54.1942H18.4218C9.09088 54.1942 6.01791 50.9132 6.01791 45.6155C6.01791 40.3178 9.09088 37.1328 18.3098 37.1328H18.3258ZM18.4378 48.4164H29.7214C33.4346 48.4164 34.5389 47.4081 34.5389 45.6155C34.5389 43.8229 33.4346 42.9107 29.8175 42.9107H18.4218C14.7087 42.9107 13.6523 43.871 13.6523 45.6155C13.6523 47.3601 14.7087 48.4164 18.4218 48.4164H18.4378ZM41.3251 26.5055V33.8998C41.3251 34.7801 40.6049 35.5003 39.7246 35.5003H35.5153C34.635 35.5003 33.9148 34.7801 33.9148 33.8998V10.8205C33.9148 9.9402 34.635 9.21997 35.5153 9.21997H39.7246C40.6049 9.21997 41.3251 9.9402 41.3251 10.8205V16.0381C41.3251 16.9184 42.0453 17.6386 42.9256 17.6386H46.4467C47.327 17.6386 48.0472 18.3589 48.0472 19.2391V23.2884C48.0472 24.1687 47.327 24.8889 46.4467 24.8889H42.9256C42.0453 24.8889 41.3251 25.6092 41.3251 26.4894V26.5055Z" fill="black"/>
<path d="M76.7284 65.4771H67.4294C66.5492 65.4771 65.8289 64.7569 65.8289 63.8766V59.059C65.8289 58.3068 66.3571 57.6986 67.0773 57.5066C72.279 56.1141 74.8878 52.4169 74.8878 47.4074V46.8792C74.8878 45.5828 74.5997 44.3344 74.0235 43.182C73.4794 42.1097 74.1836 40.8293 75.384 40.8293H75.8321C76.7124 40.8293 77.4326 40.109 77.4326 39.2288V36.5559C77.4326 35.6756 76.7124 34.9554 75.8321 34.9554H67.4774C66.5972 34.9554 65.8769 34.2352 65.8769 33.3549V30.6821C65.8769 29.8018 65.1567 29.0815 64.2764 29.0815H59.5869C58.7067 29.0815 57.9864 29.8018 57.9864 30.6821V33.3549C57.9864 34.2352 57.2662 34.9554 56.3859 34.9554H48.0473C47.167 34.9554 46.4468 35.6756 46.4468 36.5559V39.2288C46.4468 40.109 47.167 40.8293 48.0473 40.8293H48.7355C49.9359 40.8293 50.6401 42.0937 50.1119 43.182C49.5518 44.3184 49.2637 45.5668 49.2637 46.8792V47.4074C49.2637 52.513 51.9045 56.2582 57.2662 57.6026C57.9544 57.7786 58.4346 58.4188 58.4346 59.1391V63.8926C58.4346 64.7729 57.7143 65.4931 56.8341 65.4931H48.4954C47.6151 65.4931 46.8949 66.2133 46.8949 67.0936V69.7184C46.8949 70.5987 47.6151 71.3189 48.4954 71.3189H76.7604C77.6407 71.3189 78.3609 70.5987 78.3609 69.7184V67.0936C78.3609 66.2133 77.6407 65.4931 76.7604 65.4931L76.7284 65.4771ZM56.4019 47.2793V46.9592C56.4019 44.0943 58.3546 41.8216 62.0197 41.8216C65.6849 41.8216 67.7495 44.0943 67.7495 46.9592V47.2793C67.7495 50.1442 65.7969 52.4169 62.0197 52.4169C58.2425 52.4169 56.4019 50.1442 56.4019 47.2793Z" fill="black"/>
<path d="M93.3093 45.5984H89.7882C88.9079 45.5984 88.1877 44.8782 88.1877 43.9979V32.3622C88.1877 31.4819 87.4675 30.7617 86.5872 30.7617H82.3779C81.4976 30.7617 80.7773 31.4819 80.7773 32.3622V73.1752C80.7773 74.0555 81.4976 74.7757 82.3779 74.7757H86.5872C87.4675 74.7757 88.1877 74.0555 88.1877 73.1752V54.4492C88.1877 53.569 88.9079 52.8487 89.7882 52.8487H93.3093C94.1896 52.8487 94.9098 52.1285 94.9098 51.2482V47.1989C94.9098 46.3187 94.1896 45.5984 93.3093 45.5984Z" fill="black"/>
<path d="M97.7911 51.9524H138.764C139.644 51.9524 140.365 52.6726 140.365 53.5529V56.1297C140.365 57.01 139.644 57.7302 138.764 57.7302H124.968C124.087 57.7302 123.367 58.4505 123.367 59.3307V63.38C123.367 64.2603 122.647 64.9805 121.767 64.9805H116.757C115.877 64.9805 115.157 64.2603 115.157 63.38V59.3307C115.157 58.4505 114.436 57.7302 113.556 57.7302H97.7911C96.9108 57.7302 96.1906 57.01 96.1906 56.1297V53.5529C96.1906 52.6726 96.9108 51.9524 97.7911 51.9524ZM102.192 61.0113H106.93C107.81 61.0113 108.53 61.7315 108.53 62.6118V67.2533C108.53 68.1335 109.251 68.8538 110.131 68.8538H135.051C135.931 68.8538 136.651 69.574 136.651 70.4543V73.1911C136.651 74.0714 135.931 74.7916 135.051 74.7916H102.176C101.296 74.7916 100.576 74.0714 100.576 73.1911V62.6118C100.576 61.7315 101.296 61.0113 102.176 61.0113H102.192ZM135.979 36.4915V47.1349C135.979 48.0152 135.259 48.7354 134.379 48.7354H102.785C101.904 48.7354 101.184 48.0152 101.184 47.1349V32.2662C101.184 31.3859 101.904 30.6656 102.785 30.6656H129.625C133.754 30.6656 135.979 32.7303 135.979 36.4915ZM126.904 42.7975C127.785 42.7975 128.505 42.0773 128.505 41.197V38.5562C128.505 37.3878 128.089 36.6035 126.552 36.6035H110.243C109.363 36.6035 108.642 37.3238 108.642 38.204V41.197C108.642 42.0773 109.363 42.7975 110.243 42.7975H126.904Z" fill="black"/>
<path d="M143.902 37.3879C143.902 12.7881 158.642 0 178.633 0C198.623 0 213.444 12.8041 213.444 37.3879C213.444 61.9717 198.703 74.7757 178.633 74.7757C158.562 74.7757 143.902 62.0677 143.902 37.3879Z" fill="#FF8E09"/>
<path d="M287.948 9.37925V66.9975C287.948 71.4149 284.362 75.0001 279.945 75.0001H257.586C254.065 75.0001 250.96 72.6953 249.935 69.3183L244.286 49.1679V74.984H219.046V9.37925C219.046 4.96185 222.631 1.37671 227.048 1.37671H249.711C253.12 1.37671 256.161 3.53739 257.282 6.77042L265.284 30.0098L267.765 29.3696L261.683 12.1481V9.37925C261.683 4.96185 265.268 1.37671 269.686 1.37671H279.929C284.346 1.37671 287.931 4.96185 287.931 9.37925H287.948Z" fill="#2563EB"/>
<path d="M174.12 59.2987C173.992 59.2987 173.848 59.2827 173.72 59.2187C173.239 59.0266 172.951 58.5465 173.031 58.0343L175.448 41.1009H166.965C166.549 41.1009 166.181 40.8769 165.989 40.5088C165.797 40.1406 165.829 39.7085 166.053 39.3724L182.298 15.973C182.586 15.5568 183.131 15.3808 183.611 15.5728C184.091 15.7649 184.379 16.2451 184.299 16.7572L181.882 33.6906H190.365C190.781 33.6906 191.149 33.9147 191.341 34.2828C191.533 34.6509 191.501 35.083 191.277 35.4191L175.032 58.8186C174.824 59.1227 174.472 59.2987 174.12 59.2987Z" fill="white"/>
</svg>
