<svg width="270" height="93" viewBox="0 0 270 93" fill="none" xmlns="http://www.w3.org/2000/svg">
<g filter="url(#filter0_d_320_11)">
<path d="M72.0685 22.0975C71.8284 22.591 71.4816 23.0313 71.0413 23.3914C70.6011 23.7516 70.0675 24.0318 69.4672 24.2452C68.8669 24.4586 68.1866 24.552 67.4662 24.552C66.7459 24.552 66.0789 24.4453 65.4786 24.2452C64.8783 24.0451 64.3447 23.7516 63.9045 23.3914C63.4642 23.0313 63.1174 22.6044 62.8773 22.0975C62.6372 21.6039 62.5171 21.0569 62.5171 20.4566C62.5171 19.8563 62.6372 19.3094 62.8773 18.7891C63.1174 18.2822 63.4642 17.842 63.9045 17.4685C64.3447 17.095 64.8649 16.8148 65.4786 16.6147C66.0789 16.4146 66.7459 16.3079 67.4662 16.3079C68.1866 16.3079 68.8536 16.4146 69.4672 16.6147C70.0809 16.8148 70.6011 17.1083 71.0413 17.4685C71.4816 17.8287 71.8284 18.2689 72.0685 18.7891C72.3086 19.2961 72.4287 19.8563 72.4287 20.4566C72.4287 21.0569 72.3086 21.6039 72.0685 22.0975ZM70.6545 19.2694C70.4944 18.9092 70.2676 18.6024 69.9608 18.3356C69.6673 18.0688 69.2938 17.8687 68.8803 17.7219C68.4534 17.5752 67.9865 17.4952 67.4662 17.4952C66.946 17.4952 66.4791 17.5752 66.0522 17.7219C65.6386 17.8687 65.2785 18.0821 64.9716 18.3356C64.6782 18.6024 64.438 18.9092 64.278 19.2694C64.1179 19.6296 64.0378 20.0164 64.0378 20.4433C64.0378 20.8702 64.1179 21.2304 64.278 21.5905C64.438 21.9507 64.6648 22.2442 64.9716 22.511C65.2651 22.7645 65.6253 22.9646 66.0522 23.1246C66.4657 23.2714 66.946 23.3514 67.4662 23.3514C67.9865 23.3514 68.4667 23.2714 68.8803 23.1246C69.3071 22.9779 69.6673 22.7778 69.9608 22.511C70.2543 22.2575 70.4944 21.9507 70.6545 21.5905C70.8146 21.2304 70.8946 20.8568 70.8946 20.4433C70.8946 20.0298 70.8146 19.6296 70.6545 19.2694ZM64.3713 32.7561V28.594H75.617V26.8065H64.3713V25.6459H77.1511V29.7013H65.9588V31.5822H77.6046V32.7561H64.3713ZM75.6703 24.8188V16.2412H77.1511V24.8188H75.6703Z" fill="white"/>
<path d="M89.1038 15.9609H90.6112V17.7352H94.7466V18.9491H90.6112V19.8029C90.6112 20.4432 90.7446 21.0301 91.0114 21.5771C91.2782 22.124 91.625 22.6176 92.0519 23.0578C92.4788 23.498 92.9724 23.8849 93.5193 24.2051C94.0662 24.5252 94.6265 24.792 95.1868 24.9921L94.3597 26.0593C93.9062 25.8859 93.4659 25.6591 93.0257 25.3923C92.5855 25.1255 92.172 24.832 91.7718 24.4985C91.3849 24.1784 91.0247 23.8315 90.6912 23.458C90.3711 23.0845 90.1043 22.711 89.8908 22.3108C89.664 22.751 89.3839 23.1645 89.0371 23.5781C88.6902 23.9916 88.3167 24.3785 87.9165 24.752C87.5163 25.1255 87.0761 25.459 86.6225 25.7658C86.169 26.0726 85.7154 26.3394 85.2485 26.5529L84.3547 25.5657C84.9284 25.3256 85.502 25.0188 86.0623 24.6319C86.6225 24.2451 87.1428 23.8049 87.583 23.2979C88.0366 22.8044 88.3968 22.2441 88.6636 21.6438C88.9437 21.0435 89.0771 20.4032 89.0771 19.7495V18.9224H84.8216V17.7085H89.0771V15.9609H89.1038ZM86.4091 32.5959V27.7135H87.9165V31.3553H99.4689V32.5826H86.4091V32.5959ZM97.6947 28.874V22.0173H94.253V20.8034H97.6947V16.2411H99.1755V28.874H97.6947Z" fill="white"/>
<path d="M106.966 25.3658V16.8415H115.744V25.3658H106.966ZM108.087 32.596V27.18H109.594V31.3688H121.066V32.596H108.073H108.087ZM114.25 18.0421H108.473V24.1652H114.25V18.0421ZM120.786 21.8307V28.6474H119.306V16.2412H120.786V20.59H123.414V21.8173H120.786V21.8307Z" fill="white"/>
<path d="M16.334 38.666H19.0554C19.7891 38.666 20.3894 38.0657 20.3894 37.332V32.4496C20.3894 31.7159 20.9897 31.1156 21.7234 31.1156H25.1918C25.9255 31.1156 26.5258 31.7159 26.5258 32.4496V37.332C26.5258 38.0657 27.126 38.666 27.8597 38.666H39.8924C40.6261 38.666 41.2264 39.2663 41.2264 40V42.1878C41.2264 42.9215 40.6261 43.5218 39.8924 43.5218H16.334C15.6003 43.5218 15 42.9215 15 42.1878V40C15 39.2663 15.6003 38.666 16.334 38.666ZM16.2406 24.1921C16.2406 23.4584 16.8409 22.8581 17.5746 22.8581H35.2234C38.1315 22.8581 39.2388 24.3522 39.2388 26.5666V29.0345C39.2388 30.5686 38.7052 33.5968 37.4912 36.078C37.1844 36.705 36.4507 36.9985 35.8104 36.745L32.5021 35.4777C31.7817 35.1976 31.4615 34.3705 31.7684 33.6635C32.5154 32.0093 32.8756 30.4219 32.8756 29.4747V28.9945C32.8756 28.0207 32.4754 27.7139 31.3281 27.7139H17.5746C16.8409 27.7139 16.2406 27.1136 16.2406 26.3799V24.1921ZM30.2743 45.9496H39.8924C47.5362 45.9496 50.1375 48.6443 50.1375 53.0198C50.1375 57.3953 47.5362 60.1701 39.799 60.1701H30.3543C22.5771 60.1701 20.0158 57.4354 20.0158 53.0198C20.0158 48.6043 22.5771 45.9496 30.2609 45.9496H30.2743ZM30.3677 55.3543H39.7724C42.8672 55.3543 43.7877 54.5139 43.7877 53.0198C43.7877 51.5258 42.8672 50.7654 39.8524 50.7654H30.3543C27.2594 50.7654 26.379 51.5658 26.379 53.0198C26.379 54.4739 27.2594 55.3543 30.3543 55.3543H30.3677ZM49.4438 37.0919V43.255C49.4438 43.9887 48.8435 44.589 48.1098 44.589H44.6014C43.8677 44.589 43.2674 43.9887 43.2674 43.255V24.0187C43.2674 23.285 43.8677 22.6847 44.6014 22.6847H48.1098C48.8435 22.6847 49.4438 23.285 49.4438 24.0187V28.3675C49.4438 29.1012 50.0441 29.7015 50.7778 29.7015H53.7126C54.4463 29.7015 55.0466 30.3018 55.0466 31.0355V34.4105C55.0466 35.1442 54.4463 35.7445 53.7126 35.7445H50.7778C50.0441 35.7445 49.4438 36.3448 49.4438 37.0785V37.0919Z" fill="white"/>
<path d="M78.9519 69.5741H71.2014C70.4677 69.5741 69.8674 68.9738 69.8674 68.2401V64.2248C69.8674 63.5978 70.3076 63.0909 70.9079 62.9308C75.2434 61.7703 77.4178 58.6887 77.4178 54.5133V54.0731C77.4178 52.9925 77.1777 51.952 76.6974 50.9915C76.2439 50.0978 76.8308 49.0306 77.8313 49.0306H78.2049C78.9386 49.0306 79.5389 48.4303 79.5389 47.6966V45.4688C79.5389 44.7351 78.9386 44.1348 78.2049 44.1348H71.2414C70.5077 44.1348 69.9074 43.5345 69.9074 42.8008V40.573C69.9074 39.8393 69.3071 39.239 68.5734 39.239H64.6648C63.9311 39.239 63.3308 39.8393 63.3308 40.573V42.8008C63.3308 43.5345 62.7305 44.1348 61.9968 44.1348H55.0466C54.3129 44.1348 53.7126 44.7351 53.7126 45.4688V47.6966C53.7126 48.4303 54.3129 49.0306 55.0466 49.0306H55.6203C56.6208 49.0306 57.2077 50.0844 56.7675 50.9915C56.3006 51.9387 56.0605 52.9792 56.0605 54.0731V54.5133C56.0605 58.7688 58.2616 61.8903 62.7305 63.0109C63.3041 63.1576 63.7043 63.6912 63.7043 64.2915V68.2535C63.7043 68.9872 63.104 69.5875 62.3703 69.5875H55.4202C54.6865 69.5875 54.0862 70.1878 54.0862 70.9215V73.1092C54.0862 73.8429 54.6865 74.4432 55.4202 74.4432H78.9786C79.7123 74.4432 80.3126 73.8429 80.3126 73.1092V70.9215C80.3126 70.1878 79.7123 69.5875 78.9786 69.5875L78.9519 69.5741ZM62.0101 54.4066V54.1398C62.0101 51.7519 63.6376 49.8576 66.6925 49.8576C69.7473 49.8576 71.4682 51.7519 71.4682 54.1398V54.4066C71.4682 56.7944 69.8407 58.6887 66.6925 58.6887C63.5442 58.6887 62.0101 56.7944 62.0101 54.4066Z" fill="white"/>
<path d="M92.7719 53.0056H89.8371C89.1034 53.0056 88.5031 52.4053 88.5031 51.6716V41.9734C88.5031 41.2397 87.9028 40.6394 87.1691 40.6394H83.6607C82.927 40.6394 82.3267 41.2397 82.3267 41.9734V75.9904C82.3267 76.7241 82.927 77.3244 83.6607 77.3244H87.1691C87.9028 77.3244 88.5031 76.7241 88.5031 75.9904V60.3826C88.5031 59.6489 89.1034 59.0486 89.8371 59.0486H92.7719C93.5056 59.0486 94.1059 58.4483 94.1059 57.7146V54.3396C94.1059 53.6059 93.5056 53.0056 92.7719 53.0056Z" fill="white"/>
<path d="M96.5073 58.3015H130.658C131.391 58.3015 131.992 58.9018 131.992 59.6355V61.7832C131.992 62.5169 131.391 63.1172 130.658 63.1172H119.159C118.425 63.1172 117.825 63.7175 117.825 64.4512V67.8263C117.825 68.56 117.224 69.1603 116.491 69.1603H112.315C111.582 69.1603 110.981 68.56 110.981 67.8263V64.4512C110.981 63.7175 110.381 63.1172 109.647 63.1172H96.5073C95.7736 63.1172 95.1733 62.5169 95.1733 61.7832V59.6355C95.1733 58.9018 95.7736 58.3015 96.5073 58.3015ZM100.176 65.8519H104.124C104.858 65.8519 105.458 66.4522 105.458 67.1859V71.0545C105.458 71.7882 106.059 72.3885 106.792 72.3885H127.563C128.297 72.3885 128.897 72.9888 128.897 73.7225V76.0037C128.897 76.7374 128.297 77.3377 127.563 77.3377H100.162C99.4288 77.3377 98.8285 76.7374 98.8285 76.0037V67.1859C98.8285 66.4522 99.4288 65.8519 100.162 65.8519H100.176ZM128.337 45.4151V54.2862C128.337 55.0199 127.736 55.6202 127.003 55.6202H100.669C99.9357 55.6202 99.3354 55.0199 99.3354 54.2862V41.8933C99.3354 41.1596 99.9357 40.5593 100.669 40.5593H123.041C126.482 40.5593 128.337 42.2802 128.337 45.4151ZM120.773 50.671C121.506 50.671 122.107 50.0707 122.107 49.337V47.1359C122.107 46.1621 121.76 45.5085 120.479 45.5085H106.886C106.152 45.5085 105.552 46.1088 105.552 46.8425V49.337C105.552 50.0707 106.152 50.671 106.886 50.671H120.773Z" fill="white"/>
<path d="M134.94 46.1622C134.94 25.6587 147.226 15 163.888 15C180.549 15 192.902 25.672 192.902 46.1622C192.902 66.6524 180.616 77.3244 163.888 77.3244C147.159 77.3244 134.94 66.7325 134.94 46.1622Z" fill="#FF8E09"/>
<path d="M255 22.8175V70.8414C255 74.5233 252.012 77.5114 248.33 77.5114H229.694C226.759 77.5114 224.171 75.5905 223.317 72.7757L218.608 55.9807V77.4981H197.571V22.8175C197.571 19.1356 200.559 16.1475 204.241 16.1475H223.131C225.972 16.1475 228.507 17.9484 229.441 20.643L236.111 40.0127L238.178 39.4791L233.109 25.1253V22.8175C233.109 19.1356 236.097 16.1475 239.779 16.1475H248.317C251.998 16.1475 254.987 19.1356 254.987 22.8175H255Z" fill="white"/>
<path d="M160.126 64.4246C160.019 64.4246 159.899 64.4112 159.793 64.3579C159.393 64.1978 159.152 63.7976 159.219 63.3707L161.233 49.257H154.163C153.816 49.257 153.51 49.0702 153.349 48.7634C153.189 48.4566 153.216 48.0964 153.403 47.8163L166.943 28.3132C167.183 27.9664 167.637 27.8196 168.037 27.9797C168.437 28.1398 168.677 28.54 168.61 28.9669L166.596 43.0806H173.666C174.013 43.0806 174.32 43.2673 174.48 43.5742C174.64 43.881 174.613 44.2412 174.427 44.5213L160.887 64.0244C160.713 64.2778 160.42 64.4246 160.126 64.4246Z" fill="white"/>
</g>
<defs>
<filter id="filter0_d_320_11" x="0" y="0" width="270" height="92.5114" filterUnits="userSpaceOnUse" color-interpolation-filters="sRGB">
<feFlood flood-opacity="0" result="BackgroundImageFix"/>
<feColorMatrix in="SourceAlpha" type="matrix" values="0 0 0 0 0 0 0 0 0 0 0 0 0 0 0 0 0 0 127 0" result="hardAlpha"/>
<feOffset/>
<feGaussianBlur stdDeviation="7.5"/>
<feComposite in2="hardAlpha" operator="out"/>
<feColorMatrix type="matrix" values="0 0 0 0 0 0 0 0 0 0.194907 0 0 0 0 0.622445 0 0 0 0.5 0"/>
<feBlend mode="normal" in2="BackgroundImageFix" result="effect1_dropShadow_320_11"/>
<feBlend mode="normal" in="SourceGraphic" in2="effect1_dropShadow_320_11" result="shape"/>
</filter>
</defs>
</svg>
