<svg width="115" height="30" viewBox="0 0 115 30" fill="none" xmlns="http://www.w3.org/2000/svg">
<path d="M27.3453 3.40085C27.2303 3.63736 27.0641 3.8483 26.8531 4.02088C26.6422 4.19347 26.3865 4.3277 26.0989 4.42998C25.8112 4.53225 25.4852 4.577 25.1401 4.577C24.7949 4.577 24.4753 4.52586 24.1876 4.42998C23.9 4.3341 23.6443 4.19347 23.4334 4.02088C23.2224 3.8483 23.0562 3.64375 22.9412 3.40085C22.8261 3.16434 22.7686 2.90227 22.7686 2.61463C22.7686 2.32698 22.8261 2.06491 22.9412 1.81561C23.0562 1.57272 23.2224 1.36178 23.4334 1.1828C23.6443 1.00382 23.8936 0.869586 24.1876 0.773705C24.4753 0.677824 24.7949 0.626687 25.1401 0.626687C25.4852 0.626687 25.8048 0.677824 26.0989 0.773705C26.3929 0.869586 26.6422 1.01021 26.8531 1.1828C27.0641 1.35538 27.2303 1.56632 27.3453 1.81561C27.4604 2.05851 27.5179 2.32698 27.5179 2.61463C27.5179 2.90227 27.4604 3.16434 27.3453 3.40085ZM26.6678 2.04573C26.5911 1.87314 26.4824 1.72613 26.3354 1.59828C26.1947 1.47044 26.0158 1.37456 25.8176 1.30425C25.6131 1.23393 25.3893 1.19558 25.1401 1.19558C24.8908 1.19558 24.667 1.23393 24.4625 1.30425C24.2643 1.37456 24.0917 1.47683 23.9447 1.59828C23.8041 1.72613 23.689 1.87314 23.6123 2.04573C23.5356 2.21832 23.4973 2.40369 23.4973 2.60823C23.4973 2.81278 23.5356 2.98537 23.6123 3.15795C23.689 3.33054 23.7977 3.47116 23.9447 3.59901C24.0854 3.72046 24.2579 3.81634 24.4625 3.89304C24.6606 3.96336 24.8908 4.00171 25.1401 4.00171C25.3893 4.00171 25.6195 3.96336 25.8176 3.89304C26.0222 3.82273 26.1947 3.72685 26.3354 3.59901C26.476 3.47756 26.5911 3.33054 26.6678 3.15795C26.7445 2.98537 26.7828 2.80639 26.7828 2.60823C26.7828 2.41008 26.7445 2.21832 26.6678 2.04573ZM23.6571 8.50813V6.5138H29.0456V5.65726H23.6571V5.10115H29.7807V7.04434H24.4177V7.94562H29.998V8.50813H23.6571ZM29.0712 4.70484V0.594727H29.7807V4.70484H29.0712Z" fill="#555555"/>
<path d="M35.508 0.460449H36.2303V1.3106H38.2119V1.89228H36.2303V2.30137C36.2303 2.60819 36.2942 2.88944 36.4221 3.15152C36.5499 3.41359 36.7161 3.6501 36.9207 3.86104C37.1252 4.07198 37.3617 4.25735 37.6238 4.41076C37.8859 4.56417 38.1543 4.69201 38.4228 4.78789L38.0265 5.29926C37.8092 5.21616 37.5982 5.10749 37.3873 4.97965C37.1764 4.85181 36.9782 4.71119 36.7864 4.55138C36.6011 4.39797 36.4285 4.23178 36.2687 4.0528C36.1153 3.87382 35.9874 3.69484 35.8852 3.50308C35.7765 3.71402 35.6423 3.91218 35.4761 4.11033C35.3099 4.30848 35.1309 4.49385 34.9391 4.67283C34.7474 4.85181 34.5364 5.01161 34.3191 5.15863C34.1018 5.30565 33.8844 5.43349 33.6607 5.53576L33.2324 5.06275C33.5073 4.94769 33.7822 4.80067 34.0506 4.6153C34.3191 4.42993 34.5684 4.219 34.7793 3.9761C34.9967 3.73959 35.1692 3.47112 35.2971 3.18348C35.4313 2.89583 35.4952 2.58901 35.4952 2.2758V1.87949H33.4562V1.29781H35.4952V0.460449H35.508ZM34.2168 8.43138V6.09188H34.9391V7.83692H40.4747V8.42499H34.2168V8.43138ZM39.6245 6.64799V3.36246H37.9754V2.78078H39.6245V0.594683H40.334V6.64799H39.6245Z" fill="#555555"/>
<path d="M44.067 4.96691V0.88237H48.273V4.96691H44.067ZM44.604 8.43142V5.83624H45.3263V7.84335H50.8235V8.43142H44.5976H44.604ZM47.5571 1.45766H44.7893V4.39162H47.5571V1.45766ZM50.6892 3.27301V6.53936H49.9797V0.594727H50.6892V2.67855H51.9485V3.26662H50.6892V3.27301Z" fill="#555555"/>
<path d="M0.639208 11.3397H1.94319C2.29476 11.3397 2.5824 11.0521 2.5824 10.7005V8.36101C2.5824 8.00945 2.87005 7.7218 3.22161 7.7218H4.88355C5.23512 7.7218 5.52276 8.00945 5.52276 8.36101V10.7005C5.52276 11.0521 5.8104 11.3397 6.16197 11.3397H11.9276C12.2792 11.3397 12.5668 11.6274 12.5668 11.9789V13.0272C12.5668 13.3788 12.2792 13.6664 11.9276 13.6664H0.639208C0.287644 13.6664 0 13.3788 0 13.0272V11.9789C0 11.6274 0.287644 11.3397 0.639208 11.3397ZM0.594464 4.40431C0.594464 4.05275 0.882108 3.7651 1.23367 3.7651H9.6904C11.0839 3.7651 11.6144 4.48102 11.6144 5.5421V6.72464C11.6144 7.45973 11.3587 8.91073 10.7771 10.0997C10.63 10.4001 10.2785 10.5407 9.97165 10.4193L8.38641 9.81202C8.04124 9.67778 7.88783 9.28147 8.03485 8.94269C8.39281 8.15007 8.56539 7.38942 8.56539 6.93558V6.70546C8.56539 6.23884 8.37363 6.09182 7.82391 6.09182H1.23367C0.882108 6.09182 0.594464 5.80418 0.594464 5.45261V4.40431ZM7.31894 14.8298H11.9276C15.5903 14.8298 16.8368 16.121 16.8368 18.2176C16.8368 20.3142 15.5903 21.6438 11.8829 21.6438H7.35729C3.6307 21.6438 2.40342 20.3334 2.40342 18.2176C2.40342 16.1018 3.6307 14.8298 7.31254 14.8298H7.31894ZM7.36368 19.3362H11.8701C13.3531 19.3362 13.7941 18.9335 13.7941 18.2176C13.7941 17.5017 13.3531 17.1373 11.9085 17.1373H7.35729C5.87433 17.1373 5.45245 17.5209 5.45245 18.2176C5.45245 18.9143 5.87433 19.3362 7.35729 19.3362H7.36368ZM16.5044 10.5855V13.5386C16.5044 13.8902 16.2167 14.1778 15.8652 14.1778H14.184C13.8325 14.1778 13.5448 13.8902 13.5448 13.5386V4.32122C13.5448 3.96965 13.8325 3.68201 14.184 3.68201H15.8652C16.2167 3.68201 16.5044 3.96965 16.5044 4.32122V6.40504C16.5044 6.7566 16.792 7.04424 17.1436 7.04424H18.5498C18.9014 7.04424 19.189 7.33189 19.189 7.68345V9.30065C19.189 9.65221 18.9014 9.93986 18.5498 9.93986H17.1436C16.792 9.93986 16.5044 10.2275 16.5044 10.5791V10.5855Z" fill="black"/>
<path d="M30.6436 26.15H26.9298C26.5783 26.15 26.2906 25.8623 26.2906 25.5108V23.5868C26.2906 23.2863 26.5016 23.0434 26.7892 22.9667C28.8666 22.4106 29.9085 20.934 29.9085 18.9333V18.7224C29.9085 18.2046 29.7935 17.706 29.5634 17.2458C29.346 16.8175 29.6273 16.3062 30.1067 16.3062H30.2857C30.6372 16.3062 30.9249 16.0185 30.9249 15.667V14.5995C30.9249 14.2479 30.6372 13.9603 30.2857 13.9603H26.949C26.5974 13.9603 26.3098 13.6726 26.3098 13.3211V12.2536C26.3098 11.902 26.0222 11.6144 25.6706 11.6144H23.7977C23.4461 11.6144 23.1585 11.902 23.1585 12.2536V13.3211C23.1585 13.6726 22.8709 13.9603 22.5193 13.9603H19.189C18.8374 13.9603 18.5498 14.2479 18.5498 14.5995V15.667C18.5498 16.0185 18.8374 16.3062 19.189 16.3062H19.4639C19.9433 16.3062 20.2245 16.8111 20.0136 17.2458C19.7899 17.6996 19.6748 18.1982 19.6748 18.7224V18.9333C19.6748 20.9724 20.7295 22.4681 22.8709 23.0051C23.1457 23.0754 23.3375 23.3311 23.3375 23.6187V25.5172C23.3375 25.8687 23.0498 26.1564 22.6983 26.1564H19.368C19.0164 26.1564 18.7288 26.444 18.7288 26.7956V27.8439C18.7288 28.1954 19.0164 28.4831 19.368 28.4831H30.6564C31.008 28.4831 31.2956 28.1954 31.2956 27.8439V26.7956C31.2956 26.444 31.008 26.1564 30.6564 26.1564L30.6436 26.15ZM22.5257 18.8822V18.7543C22.5257 17.6102 23.3055 16.7025 24.7693 16.7025C26.2331 16.7025 27.0577 17.6102 27.0577 18.7543V18.8822C27.0577 20.0264 26.2778 20.934 24.7693 20.934C23.2608 20.934 22.5257 20.0264 22.5257 18.8822Z" fill="black"/>
<path d="M37.2658 18.2112H35.8595C35.508 18.2112 35.2203 17.9236 35.2203 17.572V12.925C35.2203 12.5734 34.9327 12.2858 34.5811 12.2858H32.9C32.5484 12.2858 32.2608 12.5734 32.2608 12.925V29.2248C32.2608 29.5764 32.5484 29.864 32.9 29.864H34.5811C34.9327 29.864 35.2203 29.5764 35.2203 29.2248V21.7461C35.2203 21.3945 35.508 21.1068 35.8595 21.1068H37.2658C37.6174 21.1068 37.905 20.8192 37.905 20.4676V18.8504C37.905 18.4989 37.6174 18.2112 37.2658 18.2112Z" fill="black"/>
<path d="M39.0556 20.7489H55.4193C55.7709 20.7489 56.0585 21.0366 56.0585 21.3881V22.4172C56.0585 22.7688 55.7709 23.0565 55.4193 23.0565H49.9093C49.5578 23.0565 49.2701 23.3441 49.2701 23.6957V25.3129C49.2701 25.6644 48.9825 25.9521 48.6309 25.9521H46.6302C46.2786 25.9521 45.991 25.6644 45.991 25.3129V23.6957C45.991 23.3441 45.7033 23.0565 45.3518 23.0565H39.0556C38.704 23.0565 38.4164 22.7688 38.4164 22.4172V21.3881C38.4164 21.0366 38.704 20.7489 39.0556 20.7489ZM40.8134 24.3668H42.7055C43.057 24.3668 43.3447 24.6545 43.3447 25.006V26.8597C43.3447 27.2113 43.6323 27.499 43.9839 27.499H53.9363C54.2879 27.499 54.5756 27.7866 54.5756 28.1382V29.2312C54.5756 29.5828 54.2879 29.8704 53.9363 29.8704H40.807C40.4554 29.8704 40.1678 29.5828 40.1678 29.2312V25.006C40.1678 24.6545 40.4554 24.3668 40.807 24.3668H40.8134ZM54.3071 14.5742V18.8249C54.3071 19.1765 54.0194 19.4641 53.6679 19.4641H41.0499C40.6983 19.4641 40.4107 19.1765 40.4107 18.8249V12.8866C40.4107 12.5351 40.6983 12.2474 41.0499 12.2474H51.7694C53.4186 12.2474 54.3071 13.072 54.3071 14.5742ZM50.6828 17.0926C51.0343 17.0926 51.322 16.805 51.322 16.4534V15.3987C51.322 14.9321 51.1558 14.6189 50.5422 14.6189H44.0286C43.6771 14.6189 43.3894 14.9065 43.3894 15.2581V16.4534C43.3894 16.805 43.6771 17.0926 44.0286 17.0926H50.6828Z" fill="black"/>
<path d="M57.4713 14.9319C57.4713 5.10728 63.3584 0 71.3421 0C79.3258 0 85.2449 5.11367 85.2449 14.9319C85.2449 24.7502 79.3578 29.8638 71.3421 29.8638C63.3264 29.8638 57.4713 24.7885 57.4713 14.9319Z" fill="#FF8E09"/>
<path d="M115 3.74585V26.7574C115 28.5216 113.568 29.9534 111.804 29.9534H102.874C101.468 29.9534 100.228 29.0329 99.8189 27.6842L97.5625 19.6366V29.947H87.4821V3.74585C87.4821 1.98163 88.914 0.549805 90.6782 0.549805H99.7294C101.091 0.549805 102.305 1.41274 102.753 2.70394L105.949 11.9852L106.94 11.7296L104.511 4.85168V3.74585C104.511 1.98163 105.942 0.549805 107.707 0.549805H111.798C113.562 0.549805 114.994 1.98163 114.994 3.74585H115Z" fill="#2563EB"/>
<path d="M69.5395 23.6826C69.4884 23.6826 69.4309 23.6763 69.3797 23.6507C69.188 23.574 69.0729 23.3822 69.1049 23.1777L70.0701 16.4148H66.6823C66.5161 16.4148 66.3691 16.3254 66.2924 16.1783C66.2156 16.0313 66.2284 15.8587 66.3179 15.7245L72.8059 6.37927C72.9209 6.21308 73.1383 6.14276 73.33 6.21947C73.5218 6.29617 73.6369 6.48794 73.6049 6.69248L72.6397 13.4553H76.0275C76.1937 13.4553 76.3407 13.5448 76.4174 13.6918C76.4941 13.8388 76.4813 14.0114 76.3918 14.1457L69.9039 23.4909C69.8208 23.6123 69.6802 23.6826 69.5395 23.6826Z" fill="white"/>
</svg>
