<svg width="21" height="22" viewBox="0 0 21 22" fill="none" xmlns="http://www.w3.org/2000/svg">
<rect x="3.13721" y="14.4312" width="13.8039" height="4.39214" fill="#2563EB"/>
<path d="M19.8482 4.99951H19.3771C19.2701 4.6944 19.0345 4.41606 18.6973 4.22336L17.9693 3.80584V3.52749C17.9693 2.32311 17.1664 1.26326 16.0049 0.947445C13.6657 0.315815 11.8564 0 10.0526 0C8.24866 0 6.43942 0.315815 4.10024 0.947445C2.93869 1.26326 2.13577 2.32311 2.13577 3.52749V3.80584L1.40779 4.22336C1.07056 4.41606 0.835037 4.6944 0.727981 4.99951H0.240876C0.107056 4.99951 0 5.10657 0 5.24039V7.86861C0 8.00243 0.107056 8.10949 0.240876 8.10949H1.34891C1.48273 8.10949 1.58978 8.00243 1.58978 7.86861V5.24039C1.58978 5.10657 1.48273 4.99951 1.34891 4.99951H1.03844C1.13479 4.80146 1.30608 4.62482 1.54696 4.48564L2.12506 4.15377V18.5046C2.12506 18.981 2.37129 19.4039 2.74599 19.6448V21.2238C2.74599 21.6521 3.16886 22 3.68808 22H4.64623C5.16545 22 5.58832 21.6521 5.58832 21.2238V20.2229C6.10754 20.2925 6.65888 20.3353 7.32263 20.3353H12.7557C13.4195 20.3353 13.9708 20.2925 14.49 20.2229V21.2238C14.49 21.6521 14.9129 22 15.4321 22H16.3903C16.9095 22 17.3324 21.6521 17.3324 21.2238V19.6448C17.7124 19.3985 17.9533 18.9757 17.9533 18.5046V4.15377L18.5314 4.48564C18.7669 4.61946 18.9436 4.80146 19.0399 4.99951H18.7294C18.5956 4.99951 18.4886 5.10657 18.4886 5.24039V7.86861C18.4886 8.00243 18.5956 8.10949 18.7294 8.10949H19.8375C19.9713 8.10949 20.0783 8.00243 20.0783 7.86861V5.24039C20.0783 5.10657 19.9713 4.99951 19.8375 4.99951H19.8482ZM7.79903 1.67007C7.88467 1.58443 7.99708 1.53625 8.12555 1.53625H11.9689C12.2204 1.53625 12.4292 1.73966 12.4292 1.99659C12.4292 2.12506 12.3757 2.23747 12.2954 2.32311C12.2097 2.40876 12.0973 2.45693 11.9689 2.45693H8.12555C7.87397 2.45693 7.66521 2.25353 7.66521 1.99659C7.66521 1.86813 7.71873 1.75572 7.79903 1.67007ZM4.99951 17.8034C4.08419 18.0229 3.27591 17.2199 3.50073 16.3046C3.60243 15.8764 3.95572 15.5231 4.38929 15.4161C5.30462 15.1966 6.1129 15.9995 5.88808 16.9148C5.78637 17.3431 5.43309 17.6964 4.99951 17.8034ZM6.17713 12.1027C4.69976 12.1027 3.50073 10.9036 3.50073 9.42628V6.66959C3.50073 5.19221 4.69976 3.99319 6.17713 3.99319H13.9173C15.3946 3.99319 16.5937 5.19221 16.5937 6.66959V9.42628C16.5937 10.9036 15.3946 12.1027 13.9173 12.1027H6.17713ZM15.7051 17.8034C14.7898 18.0229 13.9815 17.2199 14.2063 16.2993C14.3134 15.871 14.6667 15.5178 15.0949 15.4107C16.0102 15.1912 16.8131 15.9942 16.5937 16.9095C16.492 17.3377 16.1387 17.691 15.7051 17.7981V17.8034Z" fill="#B0C9FA"/>
</svg>
