<svg width="45" height="44" viewBox="0 0 45 44" fill="none" xmlns="http://www.w3.org/2000/svg">
<path d="M27.0399 38.9746H28.5586C32.7265 38.9746 37.2599 35.5945 37.2599 31.4152V17.5069V15.6228C37.2599 8.09772 30.0203 2 22.4952 2C14.9701 2 7.73047 8.09772 7.73047 15.6228V30.7872" stroke="#4C94FF" stroke-width="2.5" stroke-linecap="round" stroke-linejoin="round"/>
<path d="M22.8722 42.0002C24.5434 42.0002 25.8982 40.6454 25.8982 38.9742C25.8982 37.303 24.5434 35.9482 22.8722 35.9482C21.201 35.9482 19.8462 37.303 19.8462 38.9742C19.8462 40.6454 21.201 42.0002 22.8722 42.0002Z" fill="white" stroke="#4C94FF" stroke-width="2.5" stroke-linecap="round" stroke-linejoin="round"/>
<path d="M39.2584 33.1161H35.6556C35.1033 33.1161 34.6556 32.6684 34.6556 32.1161V19.7169C34.6556 19.1646 35.1033 18.7169 35.6556 18.7169H39.2584C42.4215 18.7169 44.9907 21.2861 44.9907 24.4492V27.3838C44.9907 30.5469 42.4215 33.1161 39.2584 33.1161Z" fill="#2563EB"/>
<path d="M5.73231 18.7178H9.27705C9.82934 18.7178 10.2771 19.1655 10.2771 19.7178V32.1171C10.2771 32.6694 9.82934 33.1171 9.27705 33.1171H5.73231C2.56926 33.1171 0 30.5478 0 27.3848V24.4501C0 21.2871 2.56926 18.7178 5.73231 18.7178Z" fill="#2563EB"/>
</svg>
