<svg width="32" height="34" viewBox="0 0 32 34" fill="none" xmlns="http://www.w3.org/2000/svg">
<path d="M28.5185 18.3784C28.6017 17.7871 28.6601 17.1915 28.6601 16.5752C28.6601 15.9589 28.6017 15.3633 28.5185 14.772L30.4133 13.127C31.0296 12.5898 31.1796 11.6944 30.7714 10.9864L28.2269 6.58042C27.8188 5.87245 26.9693 5.55595 26.1947 5.82248L23.8251 6.63872C22.8797 5.89328 21.8303 5.2811 20.6975 4.83133L20.2186 2.37845C20.0645 1.57886 19.3607 1 18.5445 1H13.4555C12.6393 1 11.9396 1.57886 11.7814 2.37845L11.3025 4.83133C10.1697 5.28526 9.12026 5.89744 8.17492 6.63872L5.80533 5.82248C5.0349 5.55595 4.18118 5.87662 3.77306 6.58042L1.22855 10.9864C0.820431 11.6944 0.970353 12.5898 1.5867 13.127L3.48154 14.772C3.39825 15.3633 3.33995 15.9589 3.33995 16.5752C3.33995 17.1915 3.39825 17.7871 3.48154 18.3784L1.5867 20.0234C0.970353 20.5606 0.820431 21.456 1.22855 22.1639L3.77306 26.57C4.18118 27.2779 5.03073 27.5944 5.80533 27.3279L8.17492 26.5117C9.12026 27.2571 10.1697 27.8651 11.3025 28.3191L11.7814 30.7719C11.9355 31.5715 12.6393 32.1504 13.4555 32.1504H18.5445C19.3607 32.1504 20.0604 31.5715 20.2186 30.7719L20.6975 28.3191C21.8303 27.8651 22.8797 27.2529 23.8251 26.5117L26.1947 27.3279C26.9651 27.5944 27.8188 27.2738 28.2269 26.57L30.7714 22.1639C31.1796 21.456 31.0296 20.5606 30.4133 20.0234L28.5185 18.3784Z" stroke="black" stroke-width="2" stroke-linecap="round" stroke-linejoin="round"/>
<path d="M16.0085 21.7684C18.8766 21.7684 21.2017 19.4434 21.2017 16.5753C21.2017 13.7072 18.8766 11.3822 16.0085 11.3822C13.1405 11.3822 10.8154 13.7072 10.8154 16.5753C10.8154 19.4434 13.1405 21.7684 16.0085 21.7684Z" stroke="black" stroke-width="2" stroke-linecap="round" stroke-linejoin="round"/>
</svg>
