<svg width="21" height="22" viewBox="0 0 21 22" fill="none" xmlns="http://www.w3.org/2000/svg">
<path d="M16.9063 1.8857C18.6771 1.8857 20.1143 3.28019 20.1143 4.9984V18.8873C20.1143 20.6055 18.6771 22 16.9063 22H3.20802C1.43719 22 0 20.6055 0 18.8873V4.9984C0 3.28019 1.43719 1.8857 3.20802 1.8857H16.9063Z" fill="#B0C9FA"/>
<path d="M6.91419 3.3C6.91419 3.90762 6.35147 4.4 5.65705 4.4C4.96262 4.4 4.3999 3.90762 4.3999 3.3V1.1C4.3999 0.492381 4.96262 0 5.65705 0C6.35147 0 6.91419 0.492381 6.91419 1.1V3.3Z" fill="#2563EB"/>
<path d="M15.4938 3.3C15.4938 3.90762 14.9311 4.4 14.2366 4.4C13.5422 4.4 12.9795 3.90762 12.9795 3.3V1.1C12.9795 0.492381 13.5422 0 14.2366 0C14.9311 0 15.4938 0.492381 15.4938 1.1V3.3Z" fill="#2563EB"/>
<path d="M6.55713 11.9424H13.5634" stroke="white" stroke-width="3" stroke-linecap="round" stroke-linejoin="round"/>
</svg>
