<svg width="71" height="85" viewBox="0 0 71 85" fill="none" xmlns="http://www.w3.org/2000/svg">
<path d="M52.5646 54.4988C47.7946 52.7839 44.6745 51.3428 44.6745 47.1563V46.5511C48.0179 43.7913 50.5831 39.7778 51.0731 35.2311C53.0907 35.051 54.7263 33.4946 54.9569 31.4482L55.0362 30.7637C55.1442 29.7909 54.856 28.8109 54.2508 28.0472C56.2323 24.1922 56.5998 17.7576 54.9065 14.616C55.9873 12.9155 56.7223 10.7322 57.1186 8.01566C57.1618 7.70582 57.0753 7.38878 56.8664 7.15099C56.6646 6.91321 56.362 6.7763 56.0521 6.7763C53.3861 6.7763 51.5991 5.67385 49.3366 4.27597C47.0524 2.86368 44.4656 1.26404 40.38 0.44981C30.739 -1.48128 26.6966 3.33925 25.7023 4.8308C18.2877 7.17982 13.9644 18.5358 16.7746 27.7301C16.7241 27.7806 16.6737 27.831 16.6233 27.8814C15.9171 28.6668 15.5857 29.7188 15.7009 30.7637L15.7802 31.4482C16.0036 33.4657 17.6032 35.0005 19.5775 35.2167C20.118 39.8787 22.6759 43.9715 25.9545 46.7312V47.1491C25.9545 51.3356 22.8273 52.7695 18.0644 54.4916C5.23125 59.1176 0 65.5017 0 76.5479V83.9192C0 84.5172 0.482773 85 1.08084 85H69.5338C70.1318 85 70.6146 84.5172 70.6146 83.9192V76.5479C70.6146 65.5017 65.3834 59.1104 52.5646 54.4916V54.4988Z" fill="#A3B2CC"/>
</svg>
