<svg width="42" height="45" viewBox="0 0 42 45" fill="none" xmlns="http://www.w3.org/2000/svg">
<path d="M0 5C0 2.23858 2.23858 0 5 0H36.0966C38.858 0 41.0966 2.23858 41.0966 5V29.4912C41.0966 32.2527 38.858 34.4912 36.0966 34.4912H25.3872L21.4121 37.0736L11.7873 43.3328C10.9768 43.8598 9.96447 43.0443 10.307 42.1402L13.2047 34.4912H5C2.23857 34.4912 0 32.2527 0 29.4912V5Z" fill="#4B93FF"/>
<path d="M17.9858 21.389C17.9864 21.3884 17.9867 21.3876 17.9867 21.3869V20.1089C17.9867 18.4949 18.2377 17.5146 19.4094 16.8211C20.3299 16.2772 21.0831 15.8348 21.5255 15.4403C22.195 14.8366 22.3623 14.3703 22.3623 13.6589C22.3623 12.6965 21.5912 12.0928 20.6467 12.0928C19.7023 12.0928 18.8236 12.571 18.5725 13.4318C18.2796 14.436 17.4009 14.9979 16.2472 14.9202C15.2848 14.8545 14.424 14.2089 14.4658 12.9117C14.5495 10.3593 17.2933 8.39261 20.6408 8.39261C23.9883 8.39261 26.6244 10.0843 26.6244 13.6649C26.6244 15.0697 26.3076 16.0739 25.5544 16.9527C24.9268 17.6819 23.9225 18.4172 22.8944 19.0867C22.3085 19.4872 22.2069 19.9056 22.2069 20.4496C22.2069 20.9712 21.7841 21.3941 21.2624 21.3941H17.9879C17.9853 21.3941 17.9839 21.3909 17.9858 21.389ZM20.1028 22.3684C21.5075 22.3684 22.3444 23.2053 22.3444 24.4845C22.3444 25.7638 21.5075 26.6006 20.1028 26.6006C18.698 26.6006 17.8611 25.7817 17.8611 24.4845C17.8611 23.1874 18.698 22.3684 20.1028 22.3684Z" fill="white"/>
</svg>
