<svg width="67" height="85" viewBox="0 0 67 85" fill="none" xmlns="http://www.w3.org/2000/svg">
<path d="M48.752 54.5197C45.6607 53.3997 43.2862 52.3916 42.0392 50.6369C42.0392 50.6369 42.0392 50.6369 42.0466 50.6369C49.8497 50.6369 58.3172 45.41 58.4666 45.2009C58.7578 44.7902 58.7354 44.2377 58.4143 43.8494C53.3218 37.6219 53.6354 33.0073 54.1133 26.0332C54.2701 23.7931 54.4419 21.2543 54.4419 18.4019C54.4493 10.1359 48.1546 0.884314 36.5061 0.0330769C31.9139 -0.302938 26.702 1.9745 24.0885 4.4386C15.845 6.01414 12.1563 12.9659 12.1563 19.2307C12.1563 22.4863 12.4325 25.2342 12.6715 27.661C13.2912 33.8436 13.7019 37.9281 8.85585 43.8494C8.54224 44.2377 8.51984 44.7902 8.80359 45.2009C8.93799 45.3951 16.8007 50.1739 24.3573 50.7265C23.1029 52.429 20.7732 53.4221 17.749 54.5197C11.544 56.7897 0 61.0085 0 76.0396V83.88C0 84.4997 0.500289 85 1.12005 85H65.3362C65.956 85 66.4562 84.4997 66.4562 83.88V76.0396C66.4562 60.9488 54.9421 56.7673 48.752 54.5197Z" fill="#A3B2CC"/>
</svg>
