<svg width="21" height="22" viewBox="0 0 21 22" fill="none" xmlns="http://www.w3.org/2000/svg">
<path d="M0 2.89474C0 1.29684 1.32027 0 2.94704 0H17.7588C19.3856 0 20.7059 1.29684 20.7059 2.89474V19.1053C20.7059 20.7032 19.3856 22 17.7588 22H2.94704C1.32027 22 0 20.7032 0 19.1053" fill="#B0C9FA"/>
<path d="M3.23535 6.14698C3.23535 6.68302 3.6699 7.11757 4.20594 7.11757C4.74198 7.11757 5.17653 6.68302 5.17653 6.14698C5.17653 5.61094 4.74198 5.17639 4.20594 5.17639C3.6699 5.17639 3.23535 5.61094 3.23535 6.14698Z" fill="#2563EB"/>
<path d="M7.76465 6.14758H16.8235" stroke="white" stroke-width="2" stroke-linecap="round" stroke-linejoin="round"/>
<path d="M3.23535 10.6766C3.23535 11.2126 3.6699 11.6472 4.20594 11.6472C4.74198 11.6472 5.17653 11.2126 5.17653 10.6766C5.17653 10.1406 4.74198 9.70602 4.20594 9.70602C3.6699 9.70602 3.23535 10.1406 3.23535 10.6766Z" fill="#2563EB"/>
<path d="M7.76465 10.6764H16.8235" stroke="white" stroke-width="2" stroke-linecap="round" stroke-linejoin="round"/>
<path d="M3.23535 15.2058C3.23535 15.7418 3.6699 16.1764 4.20594 16.1764C4.74198 16.1764 5.17653 15.7418 5.17653 15.2058C5.17653 14.6697 4.74198 14.2352 4.20594 14.2352C3.6699 14.2352 3.23535 14.6697 3.23535 15.2058Z" fill="#2563EB"/>
<path d="M7.76465 15.2059H16.8235" stroke="white" stroke-width="2" stroke-linecap="round" stroke-linejoin="round"/>
</svg>
