<svg width="34" height="39" viewBox="0 0 34 39" fill="none" xmlns="http://www.w3.org/2000/svg">
<path d="M17 16C21.4183 16 25 12.4183 25 8C25 3.58172 21.4183 0 17 0C12.5817 0 9 3.58172 9 8C9 12.4183 12.5817 16 17 16Z" fill="#A3B2CC"/>
<path d="M32.8923 35.6282C34.9665 32.31 33.9804 27.3748 31.1582 24.7993C27.3838 21.3614 22.4193 20.1875 17.0014 20.1875C11.5836 20.1875 6.61909 21.3614 2.84471 24.7993C0.0111023 27.3748 -0.96366 32.2981 1.11054 35.6282C3.18475 38.9583 6.31306 38.0838 9.94008 38.0838H24.0741C27.6898 38.0838 30.9088 38.8265 32.9037 35.6282H32.8923Z" fill="#A3B2CC"/>
</svg>
