<svg width="140" height="100" viewBox="0 0 140 100" fill="none" xmlns="http://www.w3.org/2000/svg">
<rect width="140" height="100" fill="#EEEEEE"/>
<g opacity="0.3">
<path d="M40.7786 38.9572C40.6785 39.1629 40.534 39.3463 40.3506 39.4964C40.1672 39.6464 39.9448 39.7632 39.6947 39.8521C39.4446 39.941 39.1611 39.9799 38.861 39.9799C38.5608 39.9799 38.2829 39.9355 38.0328 39.8521C37.7827 39.7687 37.5603 39.6464 37.3769 39.4964C37.1935 39.3463 37.049 39.1684 36.9489 38.9572C36.8489 38.7515 36.7988 38.5236 36.7988 38.2735C36.7988 38.0234 36.8489 37.7955 36.9489 37.5787C37.049 37.3675 37.1935 37.1841 37.3769 37.0285C37.5603 36.8728 37.7771 36.7561 38.0328 36.6727C38.2829 36.5893 38.5608 36.5449 38.861 36.5449C39.1611 36.5449 39.439 36.5893 39.6947 36.6727C39.9504 36.7561 40.1672 36.8784 40.3506 37.0285C40.534 37.1785 40.6785 37.362 40.7786 37.5787C40.8786 37.7899 40.9287 38.0234 40.9287 38.2735C40.9287 38.5236 40.8786 38.7515 40.7786 38.9572ZM40.1894 37.7788C40.1227 37.6288 40.0282 37.5009 39.9004 37.3897C39.7781 37.2786 39.6225 37.1952 39.4502 37.1341C39.2723 37.0729 39.0777 37.0396 38.861 37.0396C38.6442 37.0396 38.4497 37.0729 38.2718 37.1341C38.0995 37.1952 37.9494 37.2841 37.8216 37.3897C37.6993 37.5009 37.5992 37.6288 37.5325 37.7788C37.4658 37.9289 37.4325 38.0901 37.4325 38.268C37.4325 38.4458 37.4658 38.5959 37.5325 38.746C37.5992 38.8961 37.6937 39.0183 37.8216 39.1295C37.9438 39.2351 38.0939 39.3185 38.2718 39.3852C38.4441 39.4463 38.6442 39.4797 38.861 39.4797C39.0777 39.4797 39.2778 39.4463 39.4502 39.3852C39.628 39.324 39.7781 39.2407 39.9004 39.1295C40.0227 39.0239 40.1227 38.8961 40.1894 38.746C40.2561 38.5959 40.2895 38.4403 40.2895 38.268C40.2895 38.0957 40.2561 37.9289 40.1894 37.7788ZM37.5714 43.3983V41.6641H42.2571V40.9193H37.5714V40.4357H42.8963V42.1254H38.2329V42.9092H43.0853V43.3983H37.5714ZM42.2793 40.0911V36.5171H42.8963V40.0911H42.2793Z" fill="#555555"/>
<path d="M47.8767 36.4004H48.5048V37.1396H50.2279V37.6455H48.5048V38.0012C48.5048 38.268 48.5604 38.5126 48.6716 38.7404C48.7827 38.9683 48.9272 39.174 49.1051 39.3574C49.283 39.5408 49.4886 39.702 49.7165 39.8354C49.9444 39.9688 50.1779 40.08 50.4113 40.1634L50.0667 40.608C49.8777 40.5358 49.6943 40.4413 49.5109 40.3301C49.3274 40.219 49.1551 40.0967 48.9884 39.9577C48.8272 39.8243 48.6771 39.6798 48.5382 39.5242C48.4048 39.3685 48.2936 39.2129 48.2047 39.0462C48.1102 39.2296 47.9934 39.4019 47.8489 39.5742C47.7044 39.7465 47.5488 39.9077 47.382 40.0633C47.2153 40.219 47.0318 40.3579 46.8429 40.4858C46.6539 40.6136 46.4649 40.7248 46.2704 40.8137L45.8979 40.4024C46.137 40.3023 46.376 40.1745 46.6094 40.0133C46.8429 39.8521 47.0596 39.6687 47.2431 39.4575C47.432 39.2518 47.5821 39.0184 47.6933 38.7682C47.81 38.5181 47.8656 38.2513 47.8656 37.979V37.6343H46.0925V37.1285H47.8656V36.4004H47.8767ZM46.7539 43.3316V41.2973H47.382V42.8147H52.1955V43.3261H46.7539V43.3316ZM51.4563 41.7809V38.9239H50.0222V38.4181H51.4563V36.5171H52.0733V41.7809H51.4563Z" fill="#555555"/>
<path d="M55.3193 40.319V36.7672H58.9767V40.319H55.3193ZM55.7862 43.3316V41.0749H56.4143V42.8202H61.1945V43.3316H55.7807H55.7862ZM58.3542 37.2675H55.9474V39.8187H58.3542V37.2675ZM61.0778 38.846V41.6863H60.4608V36.5171H61.0778V38.3291H62.1728V38.8405H61.0778V38.846Z" fill="#555555"/>
<path d="M17.5558 45.8607H18.6897C18.9954 45.8607 19.2456 45.6105 19.2456 45.3048V43.2705C19.2456 42.9648 19.4957 42.7146 19.8014 42.7146H21.2466C21.5523 42.7146 21.8024 42.9648 21.8024 43.2705V45.3048C21.8024 45.6105 22.0525 45.8607 22.3582 45.8607H27.3719C27.6776 45.8607 27.9277 46.1108 27.9277 46.4165V47.3281C27.9277 47.6338 27.6776 47.8839 27.3719 47.8839H17.5558C17.2501 47.8839 17 47.6338 17 47.3281V46.4165C17 46.1108 17.2501 45.8607 17.5558 45.8607ZM17.5169 39.8299C17.5169 39.5242 17.7671 39.274 18.0728 39.274H25.4264C26.6382 39.274 27.0995 39.8966 27.0995 40.8193V41.8475C27.0995 42.4868 26.8772 43.7485 26.3714 44.7823C26.2435 45.0436 25.9378 45.1659 25.671 45.0603L24.2925 44.5322C23.9924 44.4155 23.859 44.0709 23.9868 43.7763C24.2981 43.0871 24.4482 42.4256 24.4482 42.031V41.8309C24.4482 41.4251 24.2814 41.2973 23.8034 41.2973H18.0728C17.7671 41.2973 17.5169 41.0471 17.5169 40.7414V39.8299ZM23.3643 48.8955H27.3719C30.5568 48.8955 31.6407 50.0183 31.6407 51.8414C31.6407 53.6646 30.5568 54.8207 27.3329 54.8207H23.3976C20.1571 54.8207 19.0899 53.6812 19.0899 51.8414C19.0899 50.0016 20.1571 48.8955 23.3587 48.8955H23.3643ZM23.4032 52.8141H27.3218C28.6114 52.8141 28.9949 52.464 28.9949 51.8414C28.9949 51.2189 28.6114 50.9021 27.3552 50.9021H23.3976C22.1081 50.9021 21.7413 51.2356 21.7413 51.8414C21.7413 52.4473 22.1081 52.8141 23.3976 52.8141H23.4032ZM31.3516 45.2048V47.7727C31.3516 48.0784 31.1015 48.3286 30.7958 48.3286H29.3339C29.0282 48.3286 28.7781 48.0784 28.7781 47.7727V39.7576C28.7781 39.4519 29.0282 39.2018 29.3339 39.2018H30.7958C31.1015 39.2018 31.3516 39.4519 31.3516 39.7576V41.5696C31.3516 41.8753 31.6017 42.1255 31.9075 42.1255H33.1303C33.436 42.1255 33.6861 42.3756 33.6861 42.6813V44.0876C33.6861 44.3933 33.436 44.6434 33.1303 44.6434H31.9075C31.6017 44.6434 31.3516 44.8935 31.3516 45.1992V45.2048Z" fill="black"/>
<path d="M43.6467 58.7391H40.4173C40.1116 58.7391 39.8615 58.489 39.8615 58.1833V56.5102C39.8615 56.249 40.0449 56.0378 40.2951 55.9711C42.1015 55.4875 43.0075 54.2035 43.0075 52.4638V52.2804C43.0075 51.8301 42.9075 51.3966 42.7074 50.9964C42.5184 50.624 42.763 50.1793 43.1798 50.1793H43.3355C43.6412 50.1793 43.8913 49.9292 43.8913 49.6235V48.6952C43.8913 48.3895 43.6412 48.1394 43.3355 48.1394H40.434C40.1283 48.1394 39.8782 47.8893 39.8782 47.5836V46.6553C39.8782 46.3496 39.6281 46.0995 39.3224 46.0995H37.6938C37.3881 46.0995 37.1379 46.3496 37.1379 46.6553V47.5836C37.1379 47.8893 36.8878 48.1394 36.5821 48.1394H33.6862C33.3805 48.1394 33.1304 48.3895 33.1304 48.6952V49.6235C33.1304 49.9292 33.3805 50.1793 33.6862 50.1793H33.9252C34.3421 50.1793 34.5867 50.6184 34.4032 50.9964C34.2087 51.391 34.1086 51.8246 34.1086 52.2804V52.4638C34.1086 54.2369 35.0258 55.5375 36.8878 56.0044C37.1268 56.0656 37.2936 56.2879 37.2936 56.538V58.1889C37.2936 58.4946 37.0434 58.7447 36.7377 58.7447H33.8418C33.5361 58.7447 33.286 58.9948 33.286 59.3005V60.2121C33.286 60.5178 33.5361 60.7679 33.8418 60.7679H43.6579C43.9636 60.7679 44.2137 60.5178 44.2137 60.2121V59.3005C44.2137 58.9948 43.9636 58.7447 43.6579 58.7447L43.6467 58.7391ZM36.5877 52.4193V52.3081C36.5877 51.3132 37.2658 50.5239 38.5386 50.5239C39.8115 50.5239 40.5285 51.3132 40.5285 52.3081V52.4193C40.5285 53.4143 39.8504 54.2035 38.5386 54.2035C37.2269 54.2035 36.5877 53.4143 36.5877 52.4193Z" fill="black"/>
<path d="M49.4049 51.8358H48.1821C47.8764 51.8358 47.6262 51.5857 47.6262 51.28V47.2391C47.6262 46.9334 47.3761 46.6832 47.0704 46.6832H45.6086C45.3029 46.6832 45.0527 46.9334 45.0527 47.2391V61.4128C45.0527 61.7185 45.3029 61.9686 45.6086 61.9686H47.0704C47.3761 61.9686 47.6262 61.7185 47.6262 61.4128V54.9096C47.6262 54.6039 47.8764 54.3537 48.1821 54.3537H49.4049C49.7106 54.3537 49.9607 54.1036 49.9607 53.7979V52.3916C49.9607 52.0859 49.7106 51.8358 49.4049 51.8358Z" fill="black"/>
<path d="M50.9616 54.0426H65.1909C65.4966 54.0426 65.7468 54.2927 65.7468 54.5984V55.4933C65.7468 55.799 65.4966 56.0492 65.1909 56.0492H60.3996C60.0939 56.0492 59.8438 56.2993 59.8438 56.605V58.0113C59.8438 58.317 59.5937 58.5671 59.288 58.5671H57.5482C57.2425 58.5671 56.9924 58.317 56.9924 58.0113V56.605C56.9924 56.2993 56.7423 56.0492 56.4366 56.0492H50.9616C50.6559 56.0492 50.4058 55.799 50.4058 55.4933V54.5984C50.4058 54.2927 50.6559 54.0426 50.9616 54.0426ZM52.4901 57.1886H54.1354C54.4411 57.1886 54.6912 57.4388 54.6912 57.7445V59.3564C54.6912 59.6621 54.9414 59.9122 55.2471 59.9122H63.9014C64.2071 59.9122 64.4572 60.1623 64.4572 60.468V61.4185C64.4572 61.7242 64.2071 61.9744 63.9014 61.9744H52.4846C52.1789 61.9744 51.9287 61.7242 51.9287 61.4185V57.7445C51.9287 57.4388 52.1789 57.1886 52.4846 57.1886H52.4901ZM64.2238 48.6733V52.3696C64.2238 52.6753 63.9737 52.9254 63.6679 52.9254H52.6958C52.3901 52.9254 52.14 52.6753 52.14 52.3696V47.2059C52.14 46.9001 52.3901 46.65 52.6958 46.65H62.0171C63.4512 46.65 64.2238 47.367 64.2238 48.6733ZM61.0722 50.8632C61.3779 50.8632 61.628 50.6131 61.628 50.3074V49.3903C61.628 48.9845 61.4835 48.7122 60.9499 48.7122H55.286C54.9803 48.7122 54.7301 48.9623 54.7301 49.268V50.3074C54.7301 50.6131 54.9803 50.8632 55.286 50.8632H61.0722Z" fill="black"/>
<path d="M66.9751 48.9843C66.9751 40.4411 72.0943 36 79.0367 36C85.979 36 91.1261 40.4467 91.1261 48.9843C91.1261 57.5219 86.0068 61.9685 79.0367 61.9685C72.0665 61.9685 66.9751 57.5552 66.9751 48.9843Z" fill="#FF8E09"/>
<path d="M117 39.2572V59.2672C117 60.8013 115.755 62.0464 114.221 62.0464H106.456C105.233 62.0464 104.155 61.246 103.799 60.0732L101.837 53.0752V62.0408H93.0713V39.2572C93.0713 37.7231 94.3164 36.478 95.8505 36.478H103.721C104.905 36.478 105.961 37.2284 106.35 38.3512L109.129 46.4219L109.991 46.1996L107.879 40.2188V39.2572C107.879 37.7231 109.124 36.478 110.658 36.478H114.215C115.749 36.478 116.994 37.7231 116.994 39.2572H117Z" fill="#2563EB"/>
<path d="M77.469 56.5937C77.4245 56.5937 77.3745 56.5881 77.33 56.5659C77.1633 56.4992 77.0632 56.3324 77.091 56.1546L77.9303 50.2738H74.9844C74.8399 50.2738 74.7121 50.196 74.6454 50.0682C74.5787 49.9403 74.5898 49.7903 74.6676 49.6735L80.3093 41.5473C80.4094 41.4027 80.5983 41.3416 80.7651 41.4083C80.9318 41.475 81.0319 41.6417 81.0041 41.8196L80.1648 47.7003H83.1107C83.2552 47.7003 83.3831 47.7781 83.4498 47.906C83.5165 48.0338 83.5053 48.1839 83.4275 48.3006L77.7858 56.4269C77.7136 56.5325 77.5913 56.5937 77.469 56.5937Z" fill="white"/>
</g>
</svg>
