<svg width="36" height="35" viewBox="0 0 36 35" fill="none" xmlns="http://www.w3.org/2000/svg">
<path d="M29.9002 4.70996C30.435 4.70996 30.9426 4.81873 31.4049 5.01815C31.8672 5.21757 32.2842 5.49856 32.6377 5.85208C32.9912 6.20559 33.2722 6.62255 33.4625 7.08483C33.6529 7.54712 33.7707 8.05473 33.7707 8.58953V29.1295C33.7707 29.6643 33.662 30.1719 33.4625 30.6342C33.2631 31.0964 32.9821 31.5134 32.6377 31.8669C32.2842 32.2204 31.8672 32.5014 31.4049 32.6918C30.9426 32.8912 30.435 33 29.9002 33H5.87956C5.34476 33 4.83716 32.8912 4.37487 32.6918C3.91259 32.4924 3.49563 32.2114 3.14211 31.8669C2.7886 31.5134 2.50761 31.0964 2.30819 30.6342C2.10877 30.1719 2 29.6552 2 29.1295V8.58953C2 8.05473 2.10877 7.54712 2.30819 7.08483C2.50761 6.62255 2.7886 6.20559 3.14211 5.85208C3.49563 5.49856 3.91259 5.21757 4.37487 5.01815C4.83716 4.81873 5.34476 4.70996 5.87956 4.70996" stroke="#555555" stroke-width="2.5" stroke-linecap="round" stroke-linejoin="round"/>
<path d="M13.4302 4.70996H17.8899H22.3405" stroke="#555555" stroke-width="2.5" stroke-linecap="round" stroke-linejoin="round"/>
<path d="M9.55966 2V6.26027" stroke="#555555" stroke-width="2.5" stroke-linecap="round" stroke-linejoin="round"/>
<path d="M26.2201 2V6.26027" stroke="#555555" stroke-width="2.5" stroke-linecap="round" stroke-linejoin="round"/>
<path d="M14.0104 16.3402H21.7604" stroke="#2663EB" stroke-width="2.5" stroke-linecap="round" stroke-linejoin="round"/>
<path d="M14.0104 22.9205H21.7604" stroke="#2663EB" stroke-width="2.5" stroke-linecap="round" stroke-linejoin="round"/>
</svg>
