<svg width="32" height="35" viewBox="0 0 32 35" fill="none" xmlns="http://www.w3.org/2000/svg">
<path d="M28.1016 5C28.6402 5 29.1515 5.11535 29.6171 5.32682C30.0827 5.53829 30.5027 5.83627 30.8588 6.21115C31.2148 6.58603 31.4979 7.0282 31.6896 7.51842C31.8813 8.00865 32 8.54694 32 9.11407V30.8955C32 31.4627 31.8904 32.001 31.6896 32.4912C31.4887 32.9814 31.2057 33.4236 30.8588 33.7985C30.5027 34.1733 30.0827 34.4713 29.6171 34.6732C29.1515 34.8847 28.6402 35 28.1016 35H3.90756C3.3689 35 2.85763 34.8847 2.39201 34.6732C1.92639 34.4617 1.50642 34.1637 1.15036 33.7985C0.794294 33.4236 0.51127 32.9814 0.310414 32.4912C0.109558 32.001 0 31.4531 0 30.8955V9.11407C0 8.54694 0.109558 8.00865 0.310414 7.51842C0.51127 7.0282 0.794294 6.58603 1.15036 6.21115C1.50642 5.83627 1.92639 5.53829 2.39201 5.32682C2.85763 5.11535 3.3689 5 3.90756 5" fill="#2563EB"/>
<path d="M7.55966 2V8" stroke="#FF8E09" stroke-width="2.5" stroke-linecap="round" stroke-linejoin="round"/>
<path d="M24.2201 2V8" stroke="#FF8E09" stroke-width="2.5" stroke-linecap="round" stroke-linejoin="round"/>
<path d="M12 16.3402H19.7501" stroke="white" stroke-width="2.5" stroke-linecap="round" stroke-linejoin="round"/>
<path d="M12.0104 22.9205H19.7604" stroke="white" stroke-width="2.5" stroke-linecap="round" stroke-linejoin="round"/>
</svg>
