<svg width="35" height="34" viewBox="0 0 35 34" fill="none" xmlns="http://www.w3.org/2000/svg">
<path d="M34.6107 15.5809L19.7969 0.937535C18.5237 -0.312512 16.4591 -0.312512 15.1945 0.937535L0.380669 15.5809C-0.126889 16.0827 -0.126889 16.8905 0.380669 17.3837C0.888227 17.8855 1.70548 17.8855 2.20444 17.3837L4.14864 15.4619V29.0508C4.14864 31.7805 6.39394 34 9.1554 34H25.8446C28.6061 34 30.8514 31.7805 30.8514 29.0508V15.4619L32.7956 17.3837C33.045 17.6303 33.3805 17.7579 33.7074 17.7579C34.0343 17.7579 34.3699 17.6303 34.6193 17.3837C35.1269 16.882 35.1269 16.0742 34.6193 15.5809H34.6107Z" fill="#2663EB"/>
<path d="M16.0159 27C15.9691 27 15.9165 26.9942 15.8698 26.9708C15.6944 26.9006 15.5891 26.7252 15.6184 26.5382L16.5011 20.3529H13.4027C13.2507 20.3529 13.1162 20.2711 13.0461 20.1366C12.9759 20.0022 12.9876 19.8443 13.0694 19.7216L19.0033 11.1745C19.1085 11.0225 19.3073 10.9582 19.4827 11.0283C19.6581 11.0985 19.7633 11.2739 19.734 11.461L18.8513 17.6462H21.9497C22.1017 17.6462 22.2362 17.728 22.3063 17.8625C22.3765 17.9969 22.3648 18.1548 22.283 18.2776L16.3491 26.8246C16.2731 26.9357 16.1445 27 16.0159 27Z" fill="white"/>
</svg>
