<svg width="32" height="38" viewBox="0 0 32 38" fill="none" xmlns="http://www.w3.org/2000/svg">
<path d="M26.7451 21.5555C26.36 22.8176 25.1953 23.6798 23.8758 23.6798H11.7117C10.3092 23.6798 9.09382 22.7081 8.78524 21.3399L6.57921 11.5587C6.15609 9.68271 7.58257 7.89868 9.5057 7.89868H26.8607C28.8762 7.89868 30.3183 9.84657 29.73 11.7743L26.7451 21.5555Z" fill="#2563EB" stroke="#2563EB" stroke-width="2.5" stroke-linecap="round" stroke-linejoin="round"/>
<path d="M27.1176 27.7377H10.5307C8.99104 27.7377 8.02879 26.071 8.79863 24.7377L9.32971 23.8179L5.21746 4.14497L2 2" stroke="#2563EB" stroke-width="2.5" stroke-linecap="round" stroke-linejoin="round"/>
<path d="M11.5051 33.8582C11.5051 35.0421 10.5471 36.0001 9.36316 36.0001C8.17925 36.0001 7.22125 35.0421 7.22125 33.8582C7.22125 32.6743 8.17925 31.7163 9.36316 31.7163C10.5471 31.7163 11.5051 32.6743 11.5051 33.8582Z" stroke="#FF8E09" stroke-width="2.5" stroke-linecap="round" stroke-linejoin="round"/>
<path d="M27.3895 33.8582C27.3895 35.0421 26.4315 36.0001 25.2476 36.0001C24.0637 36.0001 23.1057 35.0421 23.1057 33.8582C23.1057 32.6743 24.0637 31.7163 25.2476 31.7163C26.4315 31.7163 27.3895 32.6743 27.3895 33.8582Z" stroke="#FF8E09" stroke-width="2.5" stroke-linecap="round" stroke-linejoin="round"/>
</svg>
