<svg width="32" height="38" viewBox="0 0 32 38" fill="none" xmlns="http://www.w3.org/2000/svg">
<path d="M26.7451 21.5556C26.36 22.8177 25.1953 23.68 23.8758 23.68H11.7117C10.3092 23.68 9.09382 22.7082 8.78524 21.34L6.57921 11.5588C6.15609 9.68283 7.58256 7.8988 9.5057 7.8988H26.8607C28.8762 7.8988 30.3183 9.84669 29.73 11.7744L26.7451 21.5556Z" stroke="#555555" stroke-width="2.5" stroke-linecap="round" stroke-linejoin="round"/>
<path d="M27.1176 27.7377H10.5307C8.99104 27.7377 8.02879 26.071 8.79862 24.7377L9.32971 23.8179L5.21746 4.14497L2 2" stroke="#555555" stroke-width="2.5" stroke-linecap="round" stroke-linejoin="round"/>
<path d="M11.5051 33.8581C11.5051 35.042 10.5471 36 9.36319 36C8.17928 36 7.22128 35.042 7.22128 33.8581C7.22128 32.6742 8.17928 31.7162 9.36319 31.7162C10.5471 31.7162 11.5051 32.6742 11.5051 33.8581Z" stroke="#2663EB" stroke-width="2.5" stroke-linecap="round" stroke-linejoin="round"/>
<path d="M27.3895 33.8581C27.3895 35.042 26.4315 36 25.2476 36C24.0637 36 23.1057 35.042 23.1057 33.8581C23.1057 32.6742 24.0637 31.7162 25.2476 31.7162C26.4315 31.7162 27.3895 32.6742 27.3895 33.8581Z" stroke="#2663EB" stroke-width="2.5" stroke-linecap="round" stroke-linejoin="round"/>
</svg>
