<svg width="29" height="35" viewBox="0 0 29 35" fill="none" xmlns="http://www.w3.org/2000/svg">
<path d="M10.0251 16.1177C5.32038 17.8237 2 21.958 2 26.7964V31.4632C2 32.8624 3.25392 33.9998 4.80878 33.9998H24.7812C26.3361 33.9998 27.6 32.8624 27.6 31.4632V26.7964C27.6 21.958 24.2796 17.8237 19.5749 16.1177" stroke="#2663EB" stroke-width="2.5" stroke-linecap="round" stroke-linejoin="round"/>
<path d="M14.8 2C10.6818 2 7.33334 5.34248 7.33334 9.47052C7.33334 12.2585 8.86516 14.6922 11.136 15.9706C12.2213 16.5868 13.4683 16.9333 14.8 16.9333C16.1317 16.9333 17.3787 16.5791 18.4641 15.9706C20.7349 14.6922 22.2667 12.2585 22.2667 9.47052C22.2667 5.34248 18.9259 2 14.8 2Z" stroke="#555555" stroke-width="2.5" stroke-linecap="round" stroke-linejoin="round"/>
</svg>
