<svg width="27" height="35" viewBox="0 0 27 35" fill="none" xmlns="http://www.w3.org/2000/svg">
<g clip-path="url(#clip0_2_1584)">
<path d="M21.6128 16.0102C20.85 15.4905 19.8498 15.7098 19.1323 16.2904C18.7666 16.5863 18.3753 16.8551 17.9584 17.0917C16.594 17.8633 15.047 18.2684 13.5 18.2684C11.953 18.2684 10.3868 17.8633 9.03203 17.0917C8.60922 16.8518 8.21499 16.5788 7.84618 16.279C7.13839 15.7037 6.15148 15.4939 5.39654 16.0057C2.03896 18.282 0 21.8832 0 25.8497V30.3541C0 32.37 1.74875 34.0097 3.90107 34.0097H23.0893C25.2416 34.0097 27 32.37 27 30.3541V25.8497C27 21.8981 24.9675 18.2954 21.6128 16.0102Z" fill="#2663EB"/>
<path d="M17.4876 15.2783C19.9569 13.8797 21.6288 11.2176 21.6288 8.16965C21.6384 3.6556 17.9968 0 13.5 0C9.00321 0 5.36157 3.6556 5.36157 8.16965C5.36157 11.2176 7.03346 13.8797 9.50285 15.2783C10.6847 15.9535 12.0491 16.3296 13.5 16.3296C14.9509 16.3296 16.3153 15.9438 17.4876 15.2783Z" fill="#2663EB"/>
</g>
<defs>
<clipPath id="clip0_2_1584">
<rect width="27" height="34" fill="white"/>
</clipPath>
</defs>
</svg>
