<svg width="30" height="35" viewBox="0 0 30 35" fill="none" xmlns="http://www.w3.org/2000/svg">
<path d="M20.9743 28.1028C20.9743 31.3643 18.3282 34.0002 15.0769 34.0002C11.8256 34.0002 9.17944 31.3541 9.17944 28.1028" fill="#FF8E09"/>
<path d="M20.9743 28.1028C20.9743 31.3643 18.3282 34.0002 15.0769 34.0002C11.8256 34.0002 9.17944 31.3541 9.17944 28.1028" stroke="#FF8E09" stroke-width="2.5" stroke-linecap="round" stroke-linejoin="round"/>
<path d="M3.02568 26.6718V14.1436C3.02568 7.4359 8.53271 2 15.3386 2C22.134 2 27.6411 7.4359 27.6411 14.1436V26.6718" fill="#2563EB"/>
<path d="M3.02568 26.6718V14.1436C3.02568 7.4359 8.53271 2 15.3386 2C22.134 2 27.6411 7.4359 27.6411 14.1436V26.6718" stroke="#2563EB" stroke-width="2.5" stroke-linecap="round" stroke-linejoin="round"/>
<path d="M2 27.3944H28.6667" stroke="#2563EB" stroke-width="2.5" stroke-linecap="round" stroke-linejoin="round"/>
</svg>
